<?xml version="1.0" encoding="UTF-8"?>
<!DOCTYPE svg PUBLIC "-//W3C//DTD SVG 1.1//EN" "http://www.w3.org/Graphics/SVG/1.1/DTD/svg11.dtd">
<svg xmlns="http://www.w3.org/2000/svg" version="1.1" width="512px" height="512px" style="shape-rendering:geometricPrecision; text-rendering:geometricPrecision; image-rendering:optimizeQuality; fill-rule:evenodd; clip-rule:evenodd" xmlns:xlink="http://www.w3.org/1999/xlink">
<g><path style="opacity:0.994" fill="#2a70e0" d="M 227.5,-0.5 C 228.167,-0.5 228.833,-0.5 229.5,-0.5C 229.833,0.833333 230.167,0.833333 230.5,-0.5C 231.833,-0.5 233.167,-0.5 234.5,-0.5C 234.684,2.1731 235.851,2.83977 238,1.5C 242.434,2.93407 245.101,5.93407 246,10.5C 246.914,9.34633 247.747,9.51299 248.5,11C 248.167,11.3333 247.833,11.6667 247.5,12C 249.959,12.724 250.959,14.0573 250.5,16C 253.268,16.7076 254.101,18.2076 253,20.5C 254.167,23 256,24.8333 258.5,26C 257.572,26.3879 256.905,27.0546 256.5,28C 258.53,31.2211 259.53,34.7211 259.5,38.5C 254.637,38.1805 249.97,38.5139 245.5,39.5C 231.264,40.0825 217.264,42.0825 203.5,45.5C 198.78,40.6289 193.446,36.4623 187.5,33C 181.252,31.2878 175.085,29.4545 169,27.5C 168.586,27.9574 168.086,28.2907 167.5,28.5C 165.183,27.1802 163.183,25.5136 161.5,23.5C 160.396,24.6313 160.729,25.4646 162.5,26C 160.939,26.3176 159.772,27.1509 159,28.5C 158.586,28.0426 158.086,27.7093 157.5,27.5C 154.961,28.1153 152.461,28.7819 150,29.5C 148,28.8333 146.667,27.5 146,25.5C 145.333,28.1667 144.667,28.1667 144,25.5C 143.329,26.2524 142.496,26.5858 141.5,26.5C 142.641,24.9124 144.141,23.5791 146,22.5C 146.333,22.8333 146.667,23.1667 147,23.5C 149.814,22.0137 152.481,20.347 155,18.5C 157.562,18.7384 159.896,17.7384 162,15.5C 162.333,15.8333 162.667,16.1667 163,16.5C 166.392,14.9822 169.725,13.3155 173,11.5C 173.414,11.9574 173.914,12.2907 174.5,12.5C 177.189,11.4435 179.689,10.1101 182,8.5C 182.414,8.95735 182.914,9.29069 183.5,9.5C 187.983,7.67683 192.483,6.01016 197,4.5C 197.561,5.02186 198.228,5.3552 199,5.5C 203.468,4.33056 207.801,2.99723 212,1.5C 214.382,2.86633 216.548,2.533 218.5,0.5C 219.167,0.833333 219.833,1.16667 220.5,1.5C 222.982,0.932936 225.316,0.266269 227.5,-0.5 Z"/></g>
<g><path style="opacity:1" fill="#3277e9" d="M 234.5,-0.5 C 251.167,-0.5 267.833,-0.5 284.5,-0.5C 288.354,0.74601 292.354,1.74601 296.5,2.5C 297.554,2.32006 298.554,1.98672 299.5,1.5C 303.5,2.83333 307.5,4.16667 311.5,5.5C 312.167,5.16667 312.833,4.83333 313.5,4.5C 316.836,6.21134 320.336,7.54468 324,8.5C 324.333,8.16667 324.667,7.83333 325,7.5C 326.079,9.3937 327.413,9.72703 329,8.5C 331.311,10.1101 333.811,11.4435 336.5,12.5C 337.086,12.2907 337.586,11.9574 338,11.5C 341.339,13.0474 344.673,14.7141 348,16.5C 348.333,16.1667 348.667,15.8333 349,15.5C 353.98,17.3057 358.98,19.9724 364,23.5C 365.159,22.434 365.992,22.7673 366.5,24.5C 366.5,25.5 366.5,26.5 366.5,27.5C 351.802,28.6889 337.802,33.0223 324.5,40.5C 322.162,38.9893 321.496,39.3227 322.5,41.5C 320.476,43.3581 318.309,45.0248 316,46.5C 315.667,45.8333 315.333,45.1667 315,44.5C 314.292,45.3805 313.458,46.0472 312.5,46.5C 290.495,41.1662 268.162,38.8329 245.5,39.5C 249.97,38.5139 254.637,38.1805 259.5,38.5C 259.53,34.7211 258.53,31.2211 256.5,28C 256.905,27.0546 257.572,26.3879 258.5,26C 256,24.8333 254.167,23 253,20.5C 254.101,18.2076 253.268,16.7076 250.5,16C 250.959,14.0573 249.959,12.724 247.5,12C 247.833,11.6667 248.167,11.3333 248.5,11C 247.747,9.51299 246.914,9.34633 246,10.5C 245.101,5.93407 242.434,2.93407 238,1.5C 235.851,2.83977 234.684,2.1731 234.5,-0.5 Z"/></g>
<g><path style="opacity:0.999" fill="#2468d5" d="M 203.5,45.5 C 180.919,50.5283 159.919,59.3617 140.5,72C 141.094,72.4643 141.761,72.631 142.5,72.5C 142.631,73.2389 142.464,73.9056 142,74.5C 140.013,73.782 138.179,72.782 136.5,71.5C 135.5,72.8333 134.5,72.8333 133.5,71.5C 132.522,71.9767 131.689,72.6433 131,73.5C 127.631,69.9453 124.464,69.9453 121.5,73.5C 118.88,70.3012 116.88,70.3012 115.5,73.5C 111.921,70.876 108.421,70.876 105,73.5C 104.333,72.8333 103.667,72.1667 103,71.5C 102.15,72.4239 101.15,72.4239 100,71.5C 98.3899,73.4887 96.5565,73.8221 94.5,72.5C 92.2906,73.1062 90.124,73.7728 88,74.5C 86.3196,73.3966 84.8196,73.7299 83.5,75.5C 82.2836,74.9984 81.1169,74.6651 80,74.5C 79.6924,75.3081 79.1924,75.9747 78.5,76.5C 76.674,76.0798 74.674,76.0798 72.5,76.5C 75.9683,72.8595 79.3016,69.0261 82.5,65C 98.0653,52.1088 114.565,40.2755 132,29.5C 132.333,29.8333 132.667,30.1667 133,30.5C 135.279,28.837 137.613,27.1704 140,25.5C 140.383,26.056 140.883,26.3893 141.5,26.5C 142.496,26.5858 143.329,26.2524 144,25.5C 144.667,28.1667 145.333,28.1667 146,25.5C 146.667,27.5 148,28.8333 150,29.5C 152.461,28.7819 154.961,28.1153 157.5,27.5C 158.086,27.7093 158.586,28.0426 159,28.5C 159.772,27.1509 160.939,26.3176 162.5,26C 160.729,25.4646 160.396,24.6313 161.5,23.5C 163.183,25.5136 165.183,27.1802 167.5,28.5C 168.086,28.2907 168.586,27.9574 169,27.5C 175.085,29.4545 181.252,31.2878 187.5,33C 193.446,36.4623 198.78,40.6289 203.5,45.5 Z"/></g>
<g><path style="opacity:0.996" fill="#3f80eb" d="M 366.5,24.5 C 373.81,26.6865 379.977,30.0198 385,34.5C 385.333,34.1667 385.667,33.8333 386,33.5C 388.435,36.5361 391.269,38.5361 394.5,39.5C 394.414,40.4959 394.748,41.3292 395.5,42C 393.299,42.8249 391.466,42.3249 390,40.5C 389.667,41.1667 389.333,41.8333 389,42.5C 369.322,39.0682 350.822,42.4015 333.5,52.5C 331.929,51.6906 330.262,51.3573 328.5,51.5C 322.95,50.2036 317.617,48.537 312.5,46.5C 313.458,46.0472 314.292,45.3805 315,44.5C 315.333,45.1667 315.667,45.8333 316,46.5C 318.309,45.0248 320.476,43.3581 322.5,41.5C 321.496,39.3227 322.162,38.9893 324.5,40.5C 337.802,33.0223 351.802,28.6889 366.5,27.5C 366.5,26.5 366.5,25.5 366.5,24.5 Z"/></g>
<g><path style="opacity:1" fill="#fdfefe" d="M 245.5,39.5 C 268.162,38.8329 290.495,41.1662 312.5,46.5C 317.617,48.537 322.95,50.2036 328.5,51.5C 333.265,53.871 338.265,55.871 343.5,57.5C 346.759,59.1528 350.093,60.8195 353.5,62.5C 356.515,64.6744 359.849,66.3411 363.5,67.5C 368.857,71.5006 374.524,75.1672 380.5,78.5C 384.854,74.8123 388.854,70.8123 392.5,66.5C 393.815,65.5244 395.148,64.5244 396.5,63.5C 397.506,66.8622 398.506,70.1956 399.5,73.5C 399.674,75.861 400.007,78.1944 400.5,80.5C 400.927,83.0098 401.593,85.3432 402.5,87.5C 402.674,89.861 403.007,92.1944 403.5,94.5C 404.822,99.4287 405.822,104.429 406.5,109.5C 408.832,120.159 411.165,130.825 413.5,141.5C 412.833,141.833 412.167,142.167 411.5,142.5C 408.218,141.512 404.885,140.846 401.5,140.5C 386.817,135.744 371.817,131.744 356.5,128.5C 352.499,127.5 348.499,126.5 344.5,125.5C 342.228,124.681 339.894,124.015 337.5,123.5C 336.957,123.44 336.624,123.107 336.5,122.5C 341.833,117.833 346.833,112.833 351.5,107.5C 347.852,104.34 343.852,101.673 339.5,99.5C 337.5,98.5 335.5,97.5 333.5,96.5C 331.95,95.5592 330.284,94.8925 328.5,94.5C 324.917,92.6396 321.251,90.9729 317.5,89.5C 315.5,88.8333 313.5,88.1667 311.5,87.5C 309.883,86.962 308.216,86.6287 306.5,86.5C 301.888,84.0954 296.888,82.762 291.5,82.5C 286.647,81.3961 281.647,80.3961 276.5,79.5C 256.616,77.4431 236.949,78.4431 217.5,82.5C 203.58,84.8869 190.58,89.5536 178.5,96.5C 173.703,98.1491 169.203,100.482 165,103.5C 167.219,91.3279 170.386,79.3279 174.5,67.5C 174.167,67.1667 173.833,66.8333 173.5,66.5C 163.215,68.757 152.882,70.757 142.5,72.5C 141.761,72.631 141.094,72.4643 140.5,72C 159.919,59.3617 180.919,50.5283 203.5,45.5C 217.264,42.0825 231.264,40.0825 245.5,39.5 Z"/></g>
<g><path style="opacity:1" fill="#4c88ea" d="M 394.5,39.5 C 400.488,42.414 405.655,46.414 410,51.5C 410.333,51.1667 410.667,50.8333 411,50.5C 417.676,55.3003 424.176,60.9669 430.5,67.5C 428.161,66.3629 425.828,66.1963 423.5,67C 420.744,62.9081 417.577,59.7415 414,57.5C 411.945,57.848 409.945,57.1814 408,55.5C 405.945,55.848 403.945,55.1814 402,53.5C 400.984,54.6341 400.317,54.3008 400,52.5C 397.812,53.4467 395.478,53.4467 393,52.5C 392.333,51.8333 391.667,51.1667 391,50.5C 382.646,50.2916 374.313,50.2916 366,50.5C 365.667,51.1667 365.333,51.8333 365,52.5C 363.221,51.5209 361.555,51.8542 360,53.5C 357.502,52.8788 355.168,53.5455 353,55.5C 351.853,54.5419 350.853,54.8753 350,56.5C 348.853,55.5419 347.853,55.8753 347,57.5C 346.014,56.8288 344.847,56.8288 343.5,57.5C 338.265,55.871 333.265,53.871 328.5,51.5C 330.262,51.3573 331.929,51.6906 333.5,52.5C 350.822,42.4015 369.322,39.0682 389,42.5C 389.333,41.8333 389.667,41.1667 390,40.5C 391.466,42.3249 393.299,42.8249 395.5,42C 394.748,41.3292 394.414,40.4959 394.5,39.5 Z"/></g>
<g><path style="opacity:1" fill="#689bee" d="M 448.5,156.5 C 445.441,152.096 442.775,147.429 440.5,142.5C 443.272,108.955 429.606,85.9551 399.5,73.5C 398.506,70.1956 397.506,66.8622 396.5,63.5C 395.148,64.5244 393.815,65.5244 392.5,66.5C 389.664,66.8548 386.831,66.1882 384,64.5C 380.191,65.4462 376.525,65.4462 373,64.5C 370.957,66.5206 368.957,66.8539 367,65.5C 365.887,66.305 364.721,66.9717 363.5,67.5C 359.849,66.3411 356.515,64.6744 353.5,62.5C 356.58,62.2523 359.58,61.5856 362.5,60.5C 364.459,60.8748 366.293,61.5415 368,62.5C 368.324,60.4311 369.158,60.0977 370.5,61.5C 372.709,60.8938 374.876,60.2272 377,59.5C 379.543,59.6349 382.21,60.3015 385,61.5C 386.957,60.1461 388.957,60.4794 391,62.5C 391.674,61.4216 392.674,60.7549 394,60.5C 423.08,67.5785 441.747,85.5785 450,114.5C 453.317,128.633 452.817,142.633 448.5,156.5 Z"/></g>
<g><path style="opacity:1" fill="#5790ed" d="M 430.5,67.5 C 435.225,72.9433 440.392,77.9433 446,82.5C 446.464,83.0944 446.631,83.7611 446.5,84.5C 446.631,85.2389 446.464,85.9056 446,86.5C 445.107,85.2888 444.274,85.2888 443.5,86.5C 445.01,89.216 446.843,90.8827 449,91.5C 452.028,96.9291 454.861,102.429 457.5,108C 457.255,110.089 457.255,112.089 457.5,114C 458.167,114.333 458.833,114.667 459.5,115C 458.903,116.889 458.569,118.722 458.5,120.5C 458.977,121.478 459.643,122.311 460.5,123C 458.487,123.875 458.487,125.209 460.5,127C 460.5,132.333 460.5,137.667 460.5,143C 459.833,143.333 459.167,143.667 458.5,144C 459.097,146.436 459.097,149.103 458.5,152C 456.545,154.168 455.879,156.502 456.5,159C 454.331,161.752 453.331,164.585 453.5,167.5C 451.597,164.021 449.93,160.354 448.5,156.5C 452.817,142.633 453.317,128.633 450,114.5C 441.747,85.5785 423.08,67.5785 394,60.5C 392.674,60.7549 391.674,61.4216 391,62.5C 388.957,60.4794 386.957,60.1461 385,61.5C 382.21,60.3015 379.543,59.6349 377,59.5C 374.876,60.2272 372.709,60.8938 370.5,61.5C 369.158,60.0977 368.324,60.4311 368,62.5C 366.293,61.5415 364.459,60.8748 362.5,60.5C 359.58,61.5856 356.58,62.2523 353.5,62.5C 350.093,60.8195 346.759,59.1528 343.5,57.5C 344.847,56.8288 346.014,56.8288 347,57.5C 347.853,55.8753 348.853,55.5419 350,56.5C 350.853,54.8753 351.853,54.5419 353,55.5C 355.168,53.5455 357.502,52.8788 360,53.5C 361.555,51.8542 363.221,51.5209 365,52.5C 365.333,51.8333 365.667,51.1667 366,50.5C 374.313,50.2916 382.646,50.2916 391,50.5C 391.667,51.1667 392.333,51.8333 393,52.5C 395.478,53.4467 397.812,53.4467 400,52.5C 400.317,54.3008 400.984,54.6341 402,53.5C 403.945,55.1814 405.945,55.848 408,55.5C 409.945,57.1814 411.945,57.848 414,57.5C 417.577,59.7415 420.744,62.9081 423.5,67C 425.828,66.1963 428.161,66.3629 430.5,67.5 Z"/></g>
<g><path style="opacity:1" fill="#76a4f0" d="M 392.5,66.5 C 388.854,70.8123 384.854,74.8123 380.5,78.5C 374.524,75.1672 368.857,71.5006 363.5,67.5C 364.721,66.9717 365.887,66.305 367,65.5C 368.957,66.8539 370.957,66.5206 373,64.5C 376.525,65.4462 380.191,65.4462 384,64.5C 386.831,66.1882 389.664,66.8548 392.5,66.5 Z"/></g>
<g><path style="opacity:1" fill="#1e60c9" d="M 178.5,96.5 C 180.017,96.5106 181.184,97.1772 182,98.5C 184.699,102.722 187.532,106.889 190.5,111C 197.133,123.591 204.133,135.925 211.5,148C 211.167,148.333 210.833,148.667 210.5,149C 214.169,151.521 216.502,155.021 217.5,159.5C 218.242,160.287 219.075,160.953 220,161.5C 220.175,156.981 220.675,152.647 221.5,148.5C 221.071,159.245 221.571,169.912 223,180.5C 226.214,186.19 231.047,189.523 237.5,190.5C 238.5,190.5 239.5,190.5 240.5,190.5C 246.249,199.857 252.583,208.19 259.5,215.5C 253.491,215.334 247.491,215.501 241.5,216C 235.97,224.346 230.304,232.512 224.5,240.5C 222.197,238.675 219.864,236.842 217.5,235C 217.833,234.667 218.167,234.333 218.5,234C 216.391,232.859 214.558,231.359 213,229.5C 204.014,218.005 195.181,206.339 186.5,194.5C 177.849,178.694 169.016,163.028 160,147.5C 158.992,147.018 157.825,146.852 156.5,147C 157.28,145.927 157.113,144.76 156,143.5C 153.766,141.3 151.266,139.467 148.5,138C 150.134,137.506 151.801,137.34 153.5,137.5C 153.896,134.956 153.229,132.789 151.5,131C 150.551,130.383 149.718,130.549 149,131.5C 147.383,130.359 145.55,129.526 143.5,129C 144.701,128.097 145.535,126.931 146,125.5C 147.281,126.647 147.614,126.313 147,124.5C 145.266,123.751 143.433,123.251 141.5,123C 142.34,121.334 141.84,121.167 140,122.5C 139.544,121.256 140.044,120.423 141.5,120C 139.699,119.683 139.366,119.016 140.5,118C 139.212,117.761 138.212,118.261 137.5,119.5C 138.738,112.749 140.405,106.082 142.5,99.5C 142.167,98.8333 141.833,98.1667 141.5,97.5C 115.206,103.156 88.8732,108.656 62.5,114C 63.056,114.383 63.3893,114.883 63.5,115.5C 63.4208,116.93 63.7542,118.264 64.5,119.5C 62.5868,120.051 60.5868,120.218 58.5,120C 59.9561,120.423 60.4561,121.256 60,122.5C 58.3963,121.351 56.7297,121.351 55,122.5C 53.7069,125.01 51.8735,125.677 49.5,124.5C 46.4484,127.392 43.2817,130.059 40,132.5C 39.6667,132.167 39.3333,131.833 39,131.5C 36.0003,134.906 32.5003,136.572 28.5,136.5C 29.0083,132.663 31.0083,129.163 34.5,126C 34.1667,125.667 33.8333,125.333 33.5,125C 34.8333,123.667 36.1667,122.333 37.5,121C 37.1667,120.667 36.8333,120.333 36.5,120C 45.1146,107.985 54.6146,95.4847 65,82.5C 67.0865,79.9061 69.5865,77.9061 72.5,76.5C 74.674,76.0798 76.674,76.0798 78.5,76.5C 79.1924,75.9747 79.6924,75.3081 80,74.5C 81.1169,74.6651 82.2836,74.9984 83.5,75.5C 84.8196,73.7299 86.3196,73.3966 88,74.5C 90.124,73.7728 92.2906,73.1062 94.5,72.5C 96.5565,73.8221 98.3899,73.4887 100,71.5C 101.15,72.4239 102.15,72.4239 103,71.5C 103.667,72.1667 104.333,72.8333 105,73.5C 108.421,70.876 111.921,70.876 115.5,73.5C 116.88,70.3012 118.88,70.3012 121.5,73.5C 124.464,69.9453 127.631,69.9453 131,73.5C 131.689,72.6433 132.522,71.9767 133.5,71.5C 134.5,72.8333 135.5,72.8333 136.5,71.5C 138.179,72.782 140.013,73.782 142,74.5C 142.464,73.9056 142.631,73.2389 142.5,72.5C 152.882,70.757 163.215,68.757 173.5,66.5C 173.833,66.8333 174.167,67.1667 174.5,67.5C 170.386,79.3279 167.219,91.3279 165,103.5C 169.203,100.482 173.703,98.1491 178.5,96.5 Z"/></g>
<g><path style="opacity:1" fill="#78a6f0" d="M 399.5,73.5 C 429.606,85.9551 443.272,108.955 440.5,142.5C 439.105,140.946 438.439,141.279 438.5,143.5C 440.502,153.513 442.502,163.513 444.5,173.5C 437.096,172.819 429.763,171.152 422.5,168.5C 440.315,147.34 441.148,124.007 425,98.5C 418.453,90.1578 410.286,84.1578 400.5,80.5C 400.007,78.1944 399.674,75.861 399.5,73.5 Z"/></g>
<g><path style="opacity:1" fill="#2a6fdd" d="M 276.5,79.5 C 274.576,81.0902 274.243,82.9235 275.5,85C 274.289,85.7869 273.289,86.4536 272.5,87C 272.975,88.7633 273.642,90.43 274.5,92C 273.672,92.9147 272.672,93.5814 271.5,94C 272.672,94.4186 273.672,95.0853 274.5,96C 271.084,99.0956 270.75,102.596 273.5,106.5C 272.093,113.87 273.093,121.537 276.5,129.5C 276.137,130.183 275.804,130.85 275.5,131.5C 265.145,131.832 254.812,131.499 244.5,130.5C 235.13,114.705 226.963,99.3719 220,84.5C 219.005,83.9341 218.172,83.2674 217.5,82.5C 236.949,78.4431 256.616,77.4431 276.5,79.5 Z"/></g>
<g><path style="opacity:1" fill="#3679e4" d="M 276.5,79.5 C 281.647,80.3961 286.647,81.3961 291.5,82.5C 290.587,84.0861 290.587,85.5861 291.5,87C 289.584,89.5781 288.251,92.9114 287.5,97C 287.708,107.706 288.041,119.206 288.5,131.5C 284.167,131.5 279.833,131.5 275.5,131.5C 275.804,130.85 276.137,130.183 276.5,129.5C 273.093,121.537 272.093,113.87 273.5,106.5C 270.75,102.596 271.084,99.0956 274.5,96C 273.672,95.0853 272.672,94.4186 271.5,94C 272.672,93.5814 273.672,92.9147 274.5,92C 273.642,90.43 272.975,88.7633 272.5,87C 273.289,86.4536 274.289,85.7869 275.5,85C 274.243,82.9235 274.576,81.0902 276.5,79.5 Z"/></g>
<g><path style="opacity:1" fill="#85aff1" d="M 400.5,80.5 C 410.286,84.1578 418.453,90.1578 425,98.5C 441.148,124.007 440.315,147.34 422.5,168.5C 420.106,167.985 417.772,167.319 415.5,166.5C 416.32,164.86 417.153,163.193 418,161.5C 418.333,161.833 418.667,162.167 419,162.5C 419.318,160.939 420.151,159.772 421.5,159C 420.72,157.927 420.887,156.76 422,155.5C 422.333,155.833 422.667,156.167 423,156.5C 423.272,153.568 424.438,151.068 426.5,149C 425.366,147.984 425.699,147.317 427.5,147C 424.833,146.333 424.833,145.667 427.5,145C 427.167,144.667 426.833,144.333 426.5,144C 427.206,142.09 428.206,140.09 429.5,138C 428.833,136.667 428.167,135.333 427.5,134C 430.167,133.333 430.167,132.667 427.5,132C 429.394,130.899 430.061,129.566 429.5,128C 428.833,127.333 428.167,126.667 427.5,126C 427.616,124.732 427.949,123.398 428.5,122C 425.022,110.558 418.855,100.725 410,92.5C 409.667,92.8333 409.333,93.1667 409,93.5C 406.665,91.5998 404.498,89.5998 402.5,87.5C 401.593,85.3432 400.927,83.0098 400.5,80.5 Z"/></g>
<g><path style="opacity:1" fill="#2366d1" d="M 217.5,82.5 C 218.172,83.2674 219.005,83.9341 220,84.5C 226.963,99.3719 235.13,114.705 244.5,130.5C 254.812,131.499 265.145,131.832 275.5,131.5C 279.833,131.5 284.167,131.5 288.5,131.5C 288.5,131.833 288.5,132.167 288.5,132.5C 270.83,132.333 253.164,132.5 235.5,133C 227.451,135.212 222.784,140.378 221.5,148.5C 220.675,152.647 220.175,156.981 220,161.5C 219.075,160.953 218.242,160.287 217.5,159.5C 216.502,155.021 214.169,151.521 210.5,149C 210.833,148.667 211.167,148.333 211.5,148C 204.133,135.925 197.133,123.591 190.5,111C 187.532,106.889 184.699,102.722 182,98.5C 181.184,97.1772 180.017,96.5106 178.5,96.5C 190.58,89.5536 203.58,84.8869 217.5,82.5 Z"/></g>
<g><path style="opacity:1" fill="#5890e9" d="M 311.5,87.5 C 313.5,88.1667 315.5,88.8333 317.5,89.5C 313.727,99.1621 310.727,109.162 308.5,119.5C 308.592,144.345 316.925,164.178 333.5,179C 333.167,179.333 332.833,179.667 332.5,180C 338.672,184.428 344.505,188.595 350,192.5C 350.333,192.167 350.667,191.833 351,191.5C 355.852,194.721 360.519,197.388 365,199.5C 365.333,199.167 365.667,198.833 366,198.5C 369.081,199.815 372.247,200.815 375.5,201.5C 375.107,203.284 374.441,204.95 373.5,206.5C 330.703,195.02 307.036,167.02 302.5,122.5C 302.529,120.971 303.196,119.804 304.5,119C 303.833,117.667 303.167,116.333 302.5,115C 304.248,111.871 304.915,108.704 304.5,105.5C 306.367,98.8694 308.7,92.8694 311.5,87.5 Z"/></g>
<g><path style="opacity:1" fill="#90b6f2" d="M 402.5,87.5 C 404.498,89.5998 406.665,91.5998 409,93.5C 409.333,93.1667 409.667,92.8333 410,92.5C 418.855,100.725 425.022,110.558 428.5,122C 427.949,123.398 427.616,124.732 427.5,126C 428.167,126.667 428.833,127.333 429.5,128C 430.061,129.566 429.394,130.899 427.5,132C 430.167,132.667 430.167,133.333 427.5,134C 428.167,135.333 428.833,136.667 429.5,138C 428.206,140.09 427.206,142.09 426.5,144C 426.833,144.333 427.167,144.667 427.5,145C 424.833,145.667 424.833,146.333 427.5,147C 425.699,147.317 425.366,147.984 426.5,149C 424.438,151.068 423.272,153.568 423,156.5C 422.667,156.167 422.333,155.833 422,155.5C 420.887,156.76 420.72,157.927 421.5,159C 420.151,159.772 419.318,160.939 419,162.5C 418.667,162.167 418.333,161.833 418,161.5C 417.153,163.193 416.32,164.86 415.5,166.5C 413.421,166.029 411.421,165.363 409.5,164.5C 412.897,160.465 416.564,155.965 420.5,151C 419.701,149.251 420.368,147.918 422.5,147C 421.273,145.413 421.606,144.079 423.5,143C 423.5,141.333 423.5,139.667 423.5,138C 425.878,137.026 425.544,136.359 422.5,136C 425.544,135.641 425.878,134.974 423.5,134C 423.833,133 424.167,132 424.5,131C 421.833,130.333 421.833,129.667 424.5,129C 423.167,128.333 423.167,127.667 424.5,127C 423.833,126.667 423.167,126.333 422.5,126C 422.833,124.333 423.167,122.667 423.5,121C 421.699,120.683 421.366,120.016 422.5,119C 420.83,116.613 419.163,114.279 417.5,112C 419.901,111.195 419.734,110.362 417,109.5C 417.238,106.938 416.238,104.604 414,102.5C 413.667,102.833 413.333,103.167 413,103.5C 411.748,101.999 410.748,100.332 410,98.5C 408.927,99.2797 407.76,99.113 406.5,98C 407.167,97.6667 407.833,97.3333 408.5,97C 406.922,95.9055 405.255,95.0722 403.5,94.5C 403.007,92.1944 402.674,89.861 402.5,87.5 Z"/></g>
<g><path style="opacity:1" fill="#4c89ea" d="M 446.5,84.5 C 448.485,84.8586 449.151,85.692 448.5,87C 452.774,92.2774 457.441,97.2774 462.5,102C 462.167,102.333 461.833,102.667 461.5,103C 465.421,106.975 468.088,111.142 469.5,115.5C 468.876,115.917 468.543,116.584 468.5,117.5C 470.859,127.066 470.859,136.566 468.5,146C 469.634,147.016 469.301,147.683 467.5,148C 468.174,149.751 468.507,151.417 468.5,153C 465.446,161.667 462.112,170.501 458.5,179.5C 456.462,175.739 454.796,171.739 453.5,167.5C 453.331,164.585 454.331,161.752 456.5,159C 455.879,156.502 456.545,154.168 458.5,152C 459.097,149.103 459.097,146.436 458.5,144C 459.167,143.667 459.833,143.333 460.5,143C 460.5,137.667 460.5,132.333 460.5,127C 458.487,125.209 458.487,123.875 460.5,123C 459.643,122.311 458.977,121.478 458.5,120.5C 458.569,118.722 458.903,116.889 459.5,115C 458.833,114.667 458.167,114.333 457.5,114C 457.255,112.089 457.255,110.089 457.5,108C 454.861,102.429 452.028,96.9291 449,91.5C 446.843,90.8827 445.01,89.216 443.5,86.5C 444.274,85.2888 445.107,85.2888 446,86.5C 446.464,85.9056 446.631,85.2389 446.5,84.5 Z"/></g>
<g><path style="opacity:1" fill="#4481e5" d="M 291.5,82.5 C 296.888,82.762 301.888,84.0954 306.5,86.5C 304.505,91.8257 302.505,97.159 300.5,102.5C 300.833,103.167 301.167,103.833 301.5,104.5C 300.355,107.748 299.521,111.081 299,114.5C 298.667,113.833 298.333,113.167 298,112.5C 297.833,114.333 297.667,116.167 297.5,118C 297.909,123.389 297.909,128.389 297.5,133C 304.667,165.204 322.334,188.871 350.5,204C 358.302,207.023 365.968,210.19 373.5,213.5C 373.925,216.119 374.925,218.453 376.5,220.5C 369.54,220.014 363.04,218.014 357,214.5C 356.667,214.833 356.333,215.167 356,215.5C 351.399,213.362 347.066,210.695 343,207.5C 342.667,207.833 342.333,208.167 342,208.5C 341.581,207.328 340.915,206.328 340,205.5C 337.104,206.136 334.771,204.47 333,200.5C 332.667,200.833 332.333,201.167 332,201.5C 328.113,196.946 323.613,193.113 318.5,190C 318.833,189.667 319.167,189.333 319.5,189C 317.266,187.766 315.766,185.933 315,183.5C 314.667,183.833 314.333,184.167 314,184.5C 312.397,181.388 310.563,178.388 308.5,175.5C 307.624,174.749 306.624,174.249 305.5,174C 305.833,173.667 306.167,173.333 306.5,173C 303.748,169.922 301.414,166.589 299.5,163C 299.833,162.667 300.167,162.333 300.5,162C 299,159.833 297.5,157.667 296,155.5C 292.868,147.621 290.368,139.621 288.5,131.5C 288.041,119.206 287.708,107.706 287.5,97C 288.251,92.9114 289.584,89.5781 291.5,87C 290.587,85.5861 290.587,84.0861 291.5,82.5 Z"/></g>
<g><path style="opacity:1" fill="#fcfdfe" d="M 137.5,119.5 C 134.365,131.039 131.365,142.706 128.5,154.5C 126.694,161.045 124.861,167.711 123,174.5C 118.167,169.667 113.333,164.833 108.5,160C 107.833,159.333 107.167,159.333 106.5,160C 99.9751,169.883 94.6418,180.383 90.5,191.5C 86.4191,201.485 83.4191,211.819 81.5,222.5C 79.543,232.356 78.543,242.356 78.5,252.5C 78.4075,286.133 86.7408,317.467 103.5,346.5C 91.8937,342.631 80.2271,338.965 68.5,335.5C 70.6603,347.449 72.1603,359.449 73,371.5C 52.9284,340.117 41.7618,305.784 39.5,268.5C 39.3241,254.482 39.6574,240.482 40.5,226.5C 42.4229,217.885 44.0895,209.219 45.5,200.5C 47.9459,194.407 49.9459,188.074 51.5,181.5C 56.2667,169.964 61.6,158.63 67.5,147.5C 71.3917,142.068 75.0584,136.402 78.5,130.5C 73.8123,125.146 68.8123,120.146 63.5,115.5C 63.3893,114.883 63.056,114.383 62.5,114C 88.8732,108.656 115.206,103.156 141.5,97.5C 141.833,98.1667 142.167,98.8333 142.5,99.5C 140.405,106.082 138.738,112.749 137.5,119.5 Z"/></g>
<g><path style="opacity:1" fill="#85aff0" d="M 333.5,96.5 C 335.5,97.5 337.5,98.5 339.5,99.5C 339.414,100.496 339.748,101.329 340.5,102C 337.976,104.869 335.809,108.036 334,111.5C 332.433,117.779 331.267,124.112 330.5,130.5C 336.039,159.04 353.039,175.707 381.5,180.5C 387.545,179.658 393.545,178.491 399.5,177C 403.222,174.81 406.889,172.644 410.5,170.5C 411.6,171.605 412.267,172.938 412.5,174.5C 406.101,179.683 398.934,182.35 391,182.5C 388.333,183.167 385.667,183.833 383,184.5C 378.495,183.697 373.829,182.364 369,180.5C 367.853,181.458 366.853,181.125 366,179.5C 365.667,179.833 365.333,180.167 365,180.5C 361.949,178.634 358.782,177.967 355.5,178.5C 352.446,175.306 348.78,173.139 344.5,172C 346.878,171.026 346.544,170.359 343.5,170C 342.809,168.933 342.309,167.766 342,166.5C 341.667,166.833 341.333,167.167 341,167.5C 339.26,166.284 338.26,164.618 338,162.5C 336.334,163.34 336.167,162.84 337.5,161C 335.833,160 334.167,159 332.5,158C 333.167,157.667 333.833,157.333 334.5,157C 329.029,149.602 325.696,141.268 324.5,132C 324.978,128.139 324.978,124.473 324.5,121C 325.582,117.595 326.416,114.095 327,110.5C 328.941,105.624 331.108,100.958 333.5,96.5 Z"/></g>
<g><path style="opacity:1" fill="#92b7f2" d="M 339.5,99.5 C 343.852,101.673 347.852,104.34 351.5,107.5C 346.833,112.833 341.833,117.833 336.5,122.5C 336.624,123.107 336.957,123.44 337.5,123.5C 336.198,129.614 336.865,135.78 339.5,142C 339.167,142.333 338.833,142.667 338.5,143C 341.835,149.309 345.335,154.809 349,159.5C 351.658,162.537 354.325,164.871 357,166.5C 357.333,166.167 357.667,165.833 358,165.5C 360.612,169.141 363.946,170.808 368,170.5C 371.681,172.569 375.681,173.902 380,174.5C 383.053,173.426 386.22,173.426 389.5,174.5C 396.553,172.443 402.887,169.777 408.5,166.5C 409.167,167.833 409.833,169.167 410.5,170.5C 406.889,172.644 403.222,174.81 399.5,177C 393.545,178.491 387.545,179.658 381.5,180.5C 353.039,175.707 336.039,159.04 330.5,130.5C 331.267,124.112 332.433,117.779 334,111.5C 335.809,108.036 337.976,104.869 340.5,102C 339.748,101.329 339.414,100.496 339.5,99.5 Z"/></g>
<g><path style="opacity:1" fill="#9cbef3" d="M 403.5,94.5 C 405.255,95.0722 406.922,95.9055 408.5,97C 407.833,97.3333 407.167,97.6667 406.5,98C 407.76,99.113 408.927,99.2797 410,98.5C 410.748,100.332 411.748,101.999 413,103.5C 413.333,103.167 413.667,102.833 414,102.5C 416.238,104.604 417.238,106.938 417,109.5C 419.734,110.362 419.901,111.195 417.5,112C 419.163,114.279 420.83,116.613 422.5,119C 421.366,120.016 421.699,120.683 423.5,121C 423.167,122.667 422.833,124.333 422.5,126C 423.167,126.333 423.833,126.667 424.5,127C 423.167,127.667 423.167,128.333 424.5,129C 421.833,129.667 421.833,130.333 424.5,131C 424.167,132 423.833,133 423.5,134C 425.878,134.974 425.544,135.641 422.5,136C 425.544,136.359 425.878,137.026 423.5,138C 423.5,139.667 423.5,141.333 423.5,143C 421.606,144.079 421.273,145.413 422.5,147C 420.368,147.918 419.701,149.251 420.5,151C 416.564,155.965 412.897,160.465 409.5,164.5C 407.302,164.409 406.969,165.075 408.5,166.5C 402.887,169.777 396.553,172.443 389.5,174.5C 386.22,173.426 383.053,173.426 380,174.5C 375.681,173.902 371.681,172.569 368,170.5C 363.946,170.808 360.612,169.141 358,165.5C 357.667,165.833 357.333,166.167 357,166.5C 354.325,164.871 351.658,162.537 349,159.5C 345.335,154.809 341.835,149.309 338.5,143C 338.833,142.667 339.167,142.333 339.5,142C 336.865,135.78 336.198,129.614 337.5,123.5C 339.894,124.015 342.228,124.681 344.5,125.5C 343.462,129.686 343.462,133.853 344.5,138C 345.5,139 346.5,140 347.5,141C 345.122,141.974 345.456,142.641 348.5,143C 348.167,144 347.833,145 347.5,146C 348.5,146.333 349.5,146.667 350.5,147C 350.167,147.333 349.833,147.667 349.5,148C 352.778,152.968 356.278,157.135 360,160.5C 360.333,160.167 360.667,159.833 361,159.5C 362.097,161.053 363.43,162.386 365,163.5C 365.333,163.167 365.667,162.833 366,162.5C 368.512,163.386 371.179,164.72 374,166.5C 380.223,167.39 386.223,167.39 392,166.5C 393.487,165.747 393.654,164.914 392.5,164C 393.449,163.383 394.282,163.549 395,164.5C 405.036,158.511 411.869,150.344 415.5,140C 415.883,135.326 415.883,130.826 415.5,126.5C 415.121,123.459 413.788,120.959 411.5,119C 412.235,116.115 411.235,113.782 408.5,112C 409.151,110.692 408.485,109.859 406.5,109.5C 405.822,104.429 404.822,99.4287 403.5,94.5 Z"/></g>
<g><path style="opacity:1" fill="#4f89e7" d="M 306.5,86.5 C 308.216,86.6287 309.883,86.962 311.5,87.5C 308.7,92.8694 306.367,98.8694 304.5,105.5C 304.915,108.704 304.248,111.871 302.5,115C 303.167,116.333 303.833,117.667 304.5,119C 303.196,119.804 302.529,120.971 302.5,122.5C 307.036,167.02 330.703,195.02 373.5,206.5C 373.5,208.833 373.5,211.167 373.5,213.5C 365.968,210.19 358.302,207.023 350.5,204C 322.334,188.871 304.667,165.204 297.5,133C 297.909,128.389 297.909,123.389 297.5,118C 297.667,116.167 297.833,114.333 298,112.5C 298.333,113.167 298.667,113.833 299,114.5C 299.521,111.081 300.355,107.748 301.5,104.5C 301.167,103.833 300.833,103.167 300.5,102.5C 302.505,97.159 304.505,91.8257 306.5,86.5 Z"/></g>
<g><path style="opacity:1" fill="#1b5bc2" d="M 224.5,240.5 C 220.856,246.336 217.356,252.336 214,258.5C 212.051,262.629 210.884,266.963 210.5,271.5C 208.298,269.461 205.965,267.628 203.5,266C 204.654,265.086 204.487,264.253 203,263.5C 202.086,264.654 201.253,264.487 200.5,263C 200.833,262.667 201.167,262.333 201.5,262C 198.799,257.966 195.466,254.632 191.5,252C 192.252,251.329 192.586,250.496 192.5,249.5C 198.139,226.835 189.139,214.835 165.5,213.5C 163.255,212.409 161.422,210.742 160,208.5C 148.433,191.105 137.933,173.105 128.5,154.5C 131.365,142.706 134.365,131.039 137.5,119.5C 138.212,118.261 139.212,117.761 140.5,118C 139.366,119.016 139.699,119.683 141.5,120C 140.044,120.423 139.544,121.256 140,122.5C 141.84,121.167 142.34,121.334 141.5,123C 143.433,123.251 145.266,123.751 147,124.5C 147.614,126.313 147.281,126.647 146,125.5C 145.535,126.931 144.701,128.097 143.5,129C 145.55,129.526 147.383,130.359 149,131.5C 149.718,130.549 150.551,130.383 151.5,131C 153.229,132.789 153.896,134.956 153.5,137.5C 151.801,137.34 150.134,137.506 148.5,138C 151.266,139.467 153.766,141.3 156,143.5C 157.113,144.76 157.28,145.927 156.5,147C 157.825,146.852 158.992,147.018 160,147.5C 169.016,163.028 177.849,178.694 186.5,194.5C 195.181,206.339 204.014,218.005 213,229.5C 214.558,231.359 216.391,232.859 218.5,234C 218.167,234.333 217.833,234.667 217.5,235C 219.864,236.842 222.197,238.675 224.5,240.5 Z"/></g>
<g><path style="opacity:1" fill="#689bec" d="M 317.5,89.5 C 321.251,90.9729 324.917,92.6396 328.5,94.5C 324.17,104.32 321.17,114.486 319.5,125C 323.019,161.188 342.519,183.355 378,191.5C 380.638,191.443 383.638,191.443 387,191.5C 392.476,190.424 397.976,189.258 403.5,188C 407.594,185.62 411.927,183.787 416.5,182.5C 418.556,186.333 420.222,190.333 421.5,194.5C 420.127,194.657 418.793,194.49 417.5,194C 418.167,193.667 418.833,193.333 419.5,193C 414.565,193.086 409.898,194.419 405.5,197C 406.5,197.333 407.5,197.667 408.5,198C 407.244,198.417 406.577,199.25 406.5,200.5C 395.844,190.869 385.511,191.203 375.5,201.5C 372.247,200.815 369.081,199.815 366,198.5C 365.667,198.833 365.333,199.167 365,199.5C 360.519,197.388 355.852,194.721 351,191.5C 350.667,191.833 350.333,192.167 350,192.5C 344.505,188.595 338.672,184.428 332.5,180C 332.833,179.667 333.167,179.333 333.5,179C 316.925,164.178 308.592,144.345 308.5,119.5C 310.727,109.162 313.727,99.1621 317.5,89.5 Z"/></g>
<g><path style="opacity:1" fill="#adc8f5" d="M 406.5,109.5 C 408.485,109.859 409.151,110.692 408.5,112C 411.235,113.782 412.235,116.115 411.5,119C 413.788,120.959 415.121,123.459 415.5,126.5C 415.883,130.826 415.883,135.326 415.5,140C 411.869,150.344 405.036,158.511 395,164.5C 394.282,163.549 393.449,163.383 392.5,164C 393.654,164.914 393.487,165.747 392,166.5C 386.223,167.39 380.223,167.39 374,166.5C 371.179,164.72 368.512,163.386 366,162.5C 365.667,162.833 365.333,163.167 365,163.5C 363.43,162.386 362.097,161.053 361,159.5C 360.667,159.833 360.333,160.167 360,160.5C 356.278,157.135 352.778,152.968 349.5,148C 349.833,147.667 350.167,147.333 350.5,147C 349.5,146.667 348.5,146.333 347.5,146C 347.833,145 348.167,144 348.5,143C 345.456,142.641 345.122,141.974 347.5,141C 346.5,140 345.5,139 344.5,138C 343.462,133.853 343.462,129.686 344.5,125.5C 348.499,126.5 352.499,127.5 356.5,128.5C 356.953,129.458 357.619,130.292 358.5,131C 355.833,131.667 355.833,132.333 358.5,133C 355.833,133.667 355.833,134.333 358.5,135C 356.122,135.974 356.456,136.641 359.5,137C 356.833,137.667 356.833,138.333 359.5,139C 358.833,139.333 358.167,139.667 357.5,140C 359.792,141.29 361.792,142.957 363.5,145C 363.043,145.414 362.709,145.914 362.5,146.5C 364.559,147.567 366.392,148.9 368,150.5C 368.333,149.833 368.667,149.167 369,148.5C 369.667,149.833 370.333,151.167 371,152.5C 371.333,151.833 371.667,151.167 372,150.5C 373.333,151.833 374.667,153.167 376,154.5C 376.974,152.122 377.641,152.456 378,155.5C 378.667,152.833 379.333,152.833 380,155.5C 380.333,154.833 380.667,154.167 381,153.5C 382,153.833 383,154.167 384,154.5C 384.667,150.5 385.333,150.5 386,154.5C 386.605,152.519 387.605,152.185 389,153.5C 390.74,152.284 391.74,150.618 392,148.5C 392.333,149.5 392.667,150.5 393,151.5C 394.109,149.185 395.943,147.685 398.5,147C 397.833,146.667 397.167,146.333 396.5,146C 398.402,144.27 400.069,142.437 401.5,140.5C 404.885,140.846 408.218,141.512 411.5,142.5C 412.167,142.167 412.833,141.833 413.5,141.5C 411.165,130.825 408.832,120.159 406.5,109.5 Z"/></g>
<g><path style="opacity:1" fill="#bad1f6" d="M 356.5,128.5 C 371.817,131.744 386.817,135.744 401.5,140.5C 400.069,142.437 398.402,144.27 396.5,146C 397.167,146.333 397.833,146.667 398.5,147C 395.943,147.685 394.109,149.185 393,151.5C 392.667,150.5 392.333,149.5 392,148.5C 391.74,150.618 390.74,152.284 389,153.5C 387.605,152.185 386.605,152.519 386,154.5C 385.333,150.5 384.667,150.5 384,154.5C 383,154.167 382,153.833 381,153.5C 380.667,154.167 380.333,154.833 380,155.5C 379.333,152.833 378.667,152.833 378,155.5C 377.641,152.456 376.974,152.122 376,154.5C 374.667,153.167 373.333,151.833 372,150.5C 371.667,151.167 371.333,151.833 371,152.5C 370.333,151.167 369.667,149.833 369,148.5C 368.667,149.167 368.333,149.833 368,150.5C 366.392,148.9 364.559,147.567 362.5,146.5C 362.709,145.914 363.043,145.414 363.5,145C 361.792,142.957 359.792,141.29 357.5,140C 358.167,139.667 358.833,139.333 359.5,139C 356.833,138.333 356.833,137.667 359.5,137C 356.456,136.641 356.122,135.974 358.5,135C 355.833,134.333 355.833,133.667 358.5,133C 355.833,132.333 355.833,131.667 358.5,131C 357.619,130.292 356.953,129.458 356.5,128.5 Z"/></g>
<g><path style="opacity:0.999" fill="#3c7fea" d="M 469.5,115.5 C 472.022,118.657 474.688,121.824 477.5,125C 477.167,125.333 476.833,125.667 476.5,126C 478.405,127.815 480.072,129.815 481.5,132C 481.167,132.333 480.833,132.667 480.5,133C 482.78,135.452 484.446,138.286 485.5,141.5C 483.069,142.741 483.069,143.908 485.5,145C 483.519,145.605 483.185,146.605 484.5,148C 482.875,148.853 482.542,149.853 483.5,151C 480.888,162.503 476.888,173.503 471.5,184C 471.735,184.873 472.069,185.707 472.5,186.5C 472.062,187.506 471.396,187.506 470.5,186.5C 468.973,188.193 467.64,190.027 466.5,192C 467.167,192.333 467.833,192.667 468.5,193C 467.267,195.372 465.933,196.872 464.5,197.5C 462.331,191.659 460.331,185.659 458.5,179.5C 462.112,170.501 465.446,161.667 468.5,153C 468.507,151.417 468.174,149.751 467.5,148C 469.301,147.683 469.634,147.016 468.5,146C 470.859,136.566 470.859,127.066 468.5,117.5C 468.543,116.584 468.876,115.917 469.5,115.5 Z"/></g>
<g><path style="opacity:1" fill="#1552b6" d="M 63.5,115.5 C 68.8123,120.146 73.8123,125.146 78.5,130.5C 75.0584,136.402 71.3917,142.068 67.5,147.5C 67.5852,146.005 66.9185,145.005 65.5,144.5C 65.3309,145.397 64.9976,146.397 64.5,147.5C 63.1861,146.687 62.0195,145.687 61,144.5C 60.5172,145.448 60.3505,146.448 60.5,147.5C 58.549,147.773 57.049,147.107 56,145.5C 55.082,147.632 53.7487,148.299 52,147.5C 49.6494,148.714 47.1494,149.548 44.5,150C 44.8333,150.333 45.1667,150.667 45.5,151C 42.8333,151.667 40.1667,152.333 37.5,153C 37.8333,153.333 38.1667,153.667 38.5,154C 28.3741,158.928 19.7074,166.928 12.5,178C 13.6537,178.914 13.487,179.747 12,180.5C 11.51,179.207 11.3433,177.873 11.5,176.5C 11.3306,173.585 12.3306,170.752 14.5,168C 14.1667,167.667 13.8333,167.333 13.5,167C 15.2658,164.904 16.5991,162.571 17.5,160C 17.1667,159.667 16.8333,159.333 16.5,159C 18.6324,158.082 19.299,156.749 18.5,155C 19.9863,152.186 21.653,149.519 23.5,147C 23.1667,146.667 22.8333,146.333 22.5,146C 25.5123,142.957 27.5123,139.79 28.5,136.5C 32.5003,136.572 36.0003,134.906 39,131.5C 39.3333,131.833 39.6667,132.167 40,132.5C 43.2817,130.059 46.4484,127.392 49.5,124.5C 51.8735,125.677 53.7069,125.01 55,122.5C 56.7297,121.351 58.3963,121.351 60,122.5C 60.4561,121.256 59.9561,120.423 58.5,120C 60.5868,120.218 62.5868,120.051 64.5,119.5C 63.7542,118.264 63.4208,116.93 63.5,115.5 Z"/></g>
<g><path style="opacity:1" fill="#fdfefe" d="M 440.5,142.5 C 442.775,147.429 445.441,152.096 448.5,156.5C 449.93,160.354 451.597,164.021 453.5,167.5C 454.796,171.739 456.462,175.739 458.5,179.5C 460.331,185.659 462.331,191.659 464.5,197.5C 468.342,212.902 470.675,228.569 471.5,244.5C 472.2,265.774 470.2,286.774 465.5,307.5C 458.554,333.721 447.554,358.054 432.5,380.5C 437.652,386.152 442.985,391.652 448.5,397C 446.753,397.352 445.086,397.852 443.5,398.5C 432.855,400.629 422.188,402.629 411.5,404.5C 397.141,407.172 382.808,409.839 368.5,412.5C 371.03,400.047 374.03,387.714 377.5,375.5C 379.152,369.928 380.486,364.261 381.5,358.5C 383.645,351.273 385.811,343.94 388,336.5C 393.015,341.682 398.181,346.682 403.5,351.5C 408.874,344.088 413.207,336.088 416.5,327.5C 423.3,313.648 427.633,298.981 429.5,283.5C 431.051,279.1 431.884,274.434 432,269.5C 432.765,258.466 432.599,247.466 431.5,236.5C 430.731,227.324 429.065,218.324 426.5,209.5C 425.026,204.41 423.359,199.41 421.5,194.5C 420.222,190.333 418.556,186.333 416.5,182.5C 415.674,179.515 414.341,176.849 412.5,174.5C 412.267,172.938 411.6,171.605 410.5,170.5C 409.833,169.167 409.167,167.833 408.5,166.5C 406.969,165.075 407.302,164.409 409.5,164.5C 411.421,165.363 413.421,166.029 415.5,166.5C 417.772,167.319 420.106,167.985 422.5,168.5C 429.763,171.152 437.096,172.819 444.5,173.5C 442.502,163.513 440.502,153.513 438.5,143.5C 438.439,141.279 439.105,140.946 440.5,142.5 Z"/></g>
<g><path style="opacity:1" fill="#0b1933" d="M 288.5,138.5 C 288.5,141.5 288.5,144.5 288.5,147.5C 286.5,147.5 284.5,147.5 282.5,147.5C 268.167,147.5 253.833,147.5 239.5,147.5C 255.325,146.504 271.325,146.17 287.5,146.5C 287.194,143.615 287.527,140.948 288.5,138.5 Z"/></g>
<g><path style="opacity:1" fill="#2162c9" d="M 239.5,147.5 C 246.548,156.031 252.881,164.698 258.5,173.5C 268.659,174.167 278.659,174.833 288.5,175.5C 288.167,175.5 287.833,175.5 287.5,175.5C 270.83,175.667 254.163,175.5 237.5,175C 236.35,166.245 236.184,157.412 237,148.5C 237.671,147.748 238.504,147.414 239.5,147.5 Z"/></g>
<g><path style="opacity:1" fill="#2b6fda" d="M 239.5,147.5 C 253.833,147.5 268.167,147.5 282.5,147.5C 283.029,149.583 284.029,151.417 285.5,153C 284.285,155.096 283.451,154.929 283,152.5C 282.748,154.931 283.248,157.265 284.5,159.5C 283.391,160.965 283.891,161.965 286,162.5C 288.12,169.252 291.62,175.086 296.5,180C 296.167,180.333 295.833,180.667 295.5,181C 300.224,185.996 304.557,190.663 308.5,195C 310.933,198.621 314.267,202.121 318.5,205.5C 319.641,206.425 319.641,207.259 318.5,208C 319.784,208.684 320.951,208.517 322,207.5C 323.725,209.609 325.558,211.609 327.5,213.5C 323.466,213.505 319.466,213.838 315.5,214.5C 305.712,205.693 297.545,196.693 291,187.5C 290.764,189.119 289.931,190.119 288.5,190.5C 288.5,185.5 288.5,180.5 288.5,175.5C 278.659,174.833 268.659,174.167 258.5,173.5C 252.881,164.698 246.548,156.031 239.5,147.5 Z"/></g>
<g><path style="opacity:1" fill="#1450b3" d="M 128.5,154.5 C 137.933,173.105 148.433,191.105 160,208.5C 161.422,210.742 163.255,212.409 165.5,213.5C 150.938,212.697 139.772,218.363 132,230.5C 131.187,232.436 130.687,234.436 130.5,236.5C 137.141,237.962 143.808,239.295 150.5,240.5C 150.549,237.901 151.549,235.734 153.5,234C 163.13,227.667 169.797,229.833 173.5,240.5C 173.257,244.151 171.59,246.984 168.5,249C 162.924,250.485 157.257,251.318 151.5,251.5C 151.5,256.5 151.5,261.5 151.5,266.5C 158.43,266.266 165.096,267.433 171.5,270C 176.756,275.594 176.756,281.26 171.5,287C 165.528,290.265 159.528,290.265 153.5,287C 150.551,284.224 147.884,281.391 145.5,278.5C 141.582,272.067 137.415,265.733 133,259.5C 127.856,253.539 123.356,247.206 119.5,240.5C 119.709,239.914 120.043,239.414 120.5,239C 117.824,237.16 115.991,234.66 115,231.5C 114.667,231.833 114.333,232.167 114,232.5C 115.351,229.231 114.351,226.898 111,225.5C 108.609,219.201 105.775,213.701 102.5,209C 103.167,208.667 103.833,208.333 104.5,208C 102.833,205.667 101.167,203.333 99.5,201C 101.878,200.026 101.544,199.359 98.5,199C 99.3402,197.334 98.8402,197.167 97,198.5C 95.6323,196.506 95.1323,194.506 95.5,192.5C 93.8311,191.027 92.1645,190.694 90.5,191.5C 94.6418,180.383 99.9751,169.883 106.5,160C 107.167,159.333 107.833,159.333 108.5,160C 113.333,164.833 118.167,169.667 123,174.5C 124.861,167.711 126.694,161.045 128.5,154.5 Z"/></g>
<g><path style="opacity:1" fill="#7aa6ee" d="M 328.5,94.5 C 330.284,94.8925 331.95,95.5592 333.5,96.5C 331.108,100.958 328.941,105.624 327,110.5C 326.416,114.095 325.582,117.595 324.5,121C 324.978,124.473 324.978,128.139 324.5,132C 325.696,141.268 329.029,149.602 334.5,157C 333.833,157.333 333.167,157.667 332.5,158C 334.167,159 335.833,160 337.5,161C 336.167,162.84 336.334,163.34 338,162.5C 338.26,164.618 339.26,166.284 341,167.5C 341.333,167.167 341.667,166.833 342,166.5C 342.309,167.766 342.809,168.933 343.5,170C 346.544,170.359 346.878,171.026 344.5,172C 348.78,173.139 352.446,175.306 355.5,178.5C 358.782,177.967 361.949,178.634 365,180.5C 365.333,180.167 365.667,179.833 366,179.5C 366.853,181.125 367.853,181.458 369,180.5C 373.829,182.364 378.495,183.697 383,184.5C 385.667,183.833 388.333,183.167 391,182.5C 398.934,182.35 406.101,179.683 412.5,174.5C 414.341,176.849 415.674,179.515 416.5,182.5C 411.927,183.787 407.594,185.62 403.5,188C 397.976,189.258 392.476,190.424 387,191.5C 383.638,191.443 380.638,191.443 378,191.5C 342.519,183.355 323.019,161.188 319.5,125C 321.17,114.486 324.17,104.32 328.5,94.5 Z"/></g>
<g><path style="opacity:1" fill="#101011" d="M 288.5,132.5 C 288.5,134.5 288.5,136.5 288.5,138.5C 287.527,140.948 287.194,143.615 287.5,146.5C 271.325,146.17 255.325,146.504 239.5,147.5C 238.504,147.414 237.671,147.748 237,148.5C 236.184,157.412 236.35,166.245 237.5,175C 254.163,175.5 270.83,175.667 287.5,175.5C 287.5,180.167 287.5,184.833 287.5,189.5C 270.658,189.17 253.992,189.503 237.5,190.5C 231.047,189.523 226.214,186.19 223,180.5C 221.571,169.912 221.071,159.245 221.5,148.5C 222.784,140.378 227.451,135.212 235.5,133C 253.164,132.5 270.83,132.333 288.5,132.5 Z"/></g>
<g><path style="opacity:1" fill="#f6f6f6" d="M 234.5,135.5 C 251.5,135.5 268.5,135.5 285.5,135.5C 285.5,138.5 285.5,141.5 285.5,144.5C 269.497,144.333 253.497,144.5 237.5,145C 236.584,145.374 235.75,145.874 235,146.5C 234.181,156.744 234.348,166.91 235.5,177C 252.163,177.5 268.83,177.667 285.5,177.5C 285.5,180.833 285.5,184.167 285.5,187.5C 268.497,187.667 251.497,187.5 234.5,187C 231.098,185.6 228.264,183.433 226,180.5C 224.375,168.596 224.042,156.596 225,144.5C 227.406,140.592 230.572,137.592 234.5,135.5 Z"/></g>
<g><path style="opacity:1" fill="#0b46a5" d="M 51.5,181.5 C 49.9459,188.074 47.9459,194.407 45.5,200.5C 44.3121,199.316 43.1455,199.316 42,200.5C 41,197.833 40,197.833 39,200.5C 37.3333,199.833 35.6667,199.167 34,198.5C 33.3946,200.481 32.3946,200.815 31,199.5C 30.5439,200.744 31.0439,201.577 32.5,202C 30.4233,202.192 28.4233,202.692 26.5,203.5C 26.7093,204.086 27.0426,204.586 27.5,205C 25.3825,205.26 23.7158,206.26 22.5,208C 22.5,209 22.5,210 22.5,211C 20.726,212.698 19.0594,214.531 17.5,216.5C 17.7093,217.086 18.0426,217.586 18.5,218C 15.1291,221.445 13.7958,225.445 14.5,230C 12.5188,230.605 12.1854,231.605 13.5,233C 11.4746,234.194 11.1413,235.694 12.5,237.5C 10.9382,240.974 10.1048,244.64 10,248.5C 9.81038,254.416 9.31038,260.249 8.5,266C 12.302,348.18 49.802,414.346 121,464.5C 121.333,464.167 121.667,463.833 122,463.5C 157.93,488.025 198.263,500.692 243,501.5C 249.562,500.976 255.895,499.643 262,497.5C 264.728,497.986 267.395,497.32 270,495.5C 270.414,495.957 270.914,496.291 271.5,496.5C 275.167,494 278.833,491.5 282.5,489C 282.167,488.667 281.833,488.333 281.5,488C 282.744,487.544 283.577,488.044 284,489.5C 285.97,484.816 288.136,480.316 290.5,476C 288.227,473.962 288.227,471.795 290.5,469.5C 295.572,467.754 300.905,466.754 306.5,466.5C 307.88,466.065 308.88,466.898 309.5,469C 308.891,471.058 307.891,471.891 306.5,471.5C 307.025,472.192 307.692,472.692 308.5,473C 305.833,474.333 305.833,475.667 308.5,477C 306.117,477.065 305.45,477.898 306.5,479.5C 305.902,480.795 305.402,482.128 305,483.5C 302.528,485.298 300.861,487.632 300,490.5C 299.667,489.5 299.333,488.5 299,487.5C 298.83,489.715 298.163,491.715 297,493.5C 295.443,492.795 294.277,493.461 293.5,495.5C 288.92,498.088 284.253,500.588 279.5,503C 253.903,508.932 227.237,508.932 199.5,503C 116.417,481.545 57.2506,432.045 22,354.5C 11.3652,328.791 4.86518,301.957 2.5,274C 2.56916,266.643 2.73583,259.143 3,251.5C 3.04811,245.627 3.88144,239.96 5.5,234.5C 5.24479,226.573 7.24479,218.573 11.5,210.5C 11.2907,209.914 10.9574,209.414 10.5,209C 16.3352,196.577 23.6685,187.743 32.5,182.5C 34.0041,179.91 36.0041,179.244 38.5,180.5C 40.2581,179.872 41.7581,178.872 43,177.5C 43.6667,178.167 44.3333,178.833 45,179.5C 45.7412,178.359 46.5745,178.359 47.5,179.5C 47.8333,178.833 48.1667,178.167 48.5,177.5C 49.5244,178.852 50.5244,180.185 51.5,181.5 Z"/></g>
<g><path style="opacity:1" fill="#071833" d="M 287.5,175.5 C 287.833,175.5 288.167,175.5 288.5,175.5C 288.5,180.5 288.5,185.5 288.5,190.5C 272.5,190.5 256.5,190.5 240.5,190.5C 239.5,190.5 238.5,190.5 237.5,190.5C 253.992,189.503 270.658,189.17 287.5,189.5C 287.5,184.833 287.5,180.167 287.5,175.5 Z"/></g>
<g><path style="opacity:1" fill="#2367d2" d="M 315.5,214.5 C 302.214,221.351 294.547,232.351 292.5,247.5C 282.698,238.942 273.365,229.942 264.5,220.5C 265.117,218.771 266.117,217.271 267.5,216C 264.854,215.503 262.187,215.336 259.5,215.5C 252.583,208.19 246.249,199.857 240.5,190.5C 256.5,190.5 272.5,190.5 288.5,190.5C 289.931,190.119 290.764,189.119 291,187.5C 297.545,196.693 305.712,205.693 315.5,214.5 Z"/></g>
<g><path style="opacity:1" fill="#fafbfe" d="M 406.5,200.5 C 409.133,205.109 410.133,210.109 409.5,215.5C 404.211,225.81 395.878,229.643 384.5,227C 381.064,225.726 378.397,223.559 376.5,220.5C 374.925,218.453 373.925,216.119 373.5,213.5C 373.5,211.167 373.5,208.833 373.5,206.5C 374.441,204.95 375.107,203.284 375.5,201.5C 385.511,191.203 395.844,190.869 406.5,200.5 Z"/></g>
<g><path style="opacity:1" fill="#08429f" d="M 45.5,200.5 C 44.0895,209.219 42.4229,217.885 40.5,226.5C 39.5272,227.791 38.5272,227.791 37.5,226.5C 36.3175,228.645 34.8175,228.645 33,226.5C 32.5034,228.81 32.3367,231.143 32.5,233.5C 28.7924,234.029 26.1258,236.029 24.5,239.5C 23.675,240.386 22.675,240.719 21.5,240.5C 21.822,242.722 21.1554,244.556 19.5,246C 20.5742,246.739 21.2409,247.739 21.5,249C 20.1646,255.747 18.8313,262.413 17.5,269C 17.6667,270.5 17.8333,272 18,273.5C 18.3333,270.833 18.6667,268.167 19,265.5C 16.5315,323.777 39.6981,378.277 88.5,429C 96.1771,435.602 104.01,442.102 112,448.5C 112.383,447.944 112.883,447.611 113.5,447.5C 113.5,448.167 113.833,448.5 114.5,448.5C 114.842,450.392 116.176,452.058 118.5,453.5C 149.042,473.424 181.542,486.424 216,492.5C 219.46,492.092 223.127,492.092 227,492.5C 230.167,492.333 233.333,492.167 236.5,492C 237.325,490.312 238.325,490.145 239.5,491.5C 240.748,490.96 241.915,490.293 243,489.5C 243.667,492.167 244.333,492.167 245,489.5C 245.414,489.957 245.914,490.291 246.5,490.5C 249.109,489.77 251.776,489.27 254.5,489C 255.833,488.333 255.833,487.667 254.5,487C 255.993,485.632 257.493,485.465 259,486.5C 259.317,484.699 259.984,484.366 261,485.5C 260.314,482.081 261.814,479.914 265.5,479C 265.043,478.586 264.709,478.086 264.5,477.5C 266.124,476.131 266.624,474.464 266,472.5C 265.692,473.308 265.192,473.975 264.5,474.5C 259.54,472.938 254.54,471.938 249.5,471.5C 263.217,471.692 276.883,471.026 290.5,469.5C 288.227,471.795 288.227,473.962 290.5,476C 288.136,480.316 285.97,484.816 284,489.5C 283.577,488.044 282.744,487.544 281.5,488C 281.833,488.333 282.167,488.667 282.5,489C 278.833,491.5 275.167,494 271.5,496.5C 270.914,496.291 270.414,495.957 270,495.5C 267.395,497.32 264.728,497.986 262,497.5C 255.895,499.643 249.562,500.976 243,501.5C 198.263,500.692 157.93,488.025 122,463.5C 121.667,463.833 121.333,464.167 121,464.5C 49.802,414.346 12.302,348.18 8.5,266C 9.31038,260.249 9.81038,254.416 10,248.5C 10.1048,244.64 10.9382,240.974 12.5,237.5C 11.1413,235.694 11.4746,234.194 13.5,233C 12.1854,231.605 12.5188,230.605 14.5,230C 13.7958,225.445 15.1291,221.445 18.5,218C 18.0426,217.586 17.7093,217.086 17.5,216.5C 19.0594,214.531 20.726,212.698 22.5,211C 22.5,210 22.5,209 22.5,208C 23.7158,206.26 25.3825,205.26 27.5,205C 27.0426,204.586 26.7093,204.086 26.5,203.5C 28.4233,202.692 30.4233,202.192 32.5,202C 31.0439,201.577 30.5439,200.744 31,199.5C 32.3946,200.815 33.3946,200.481 34,198.5C 35.6667,199.167 37.3333,199.833 39,200.5C 40,197.833 41,197.833 42,200.5C 43.1455,199.316 44.3121,199.316 45.5,200.5 Z"/></g>
<g><path style="opacity:1" fill="#0f4bac" d="M 145.5,278.5 C 139.443,280.376 133.443,282.376 127.5,284.5C 135.849,302.179 149.849,309.679 169.5,307C 179.439,305.953 187.273,301.453 193,293.5C 195.035,290.439 196.201,287.105 196.5,283.5C 198.652,284.077 198.985,285.244 197.5,287C 198.676,288.914 199.676,288.748 200.5,286.5C 204.29,289.405 207.123,293.072 209,297.5C 211.86,300.36 214.694,303.194 217.5,306C 216.346,306.914 216.513,307.747 218,308.5C 218.414,308.043 218.914,307.709 219.5,307.5C 223.275,309.446 226.609,311.946 229.5,315C 227,315.833 226.833,317 229,318.5C 229.423,317.044 230.256,316.544 231.5,317C 234.568,320.327 237.568,322.994 240.5,325C 239.833,325.667 239.167,326.333 238.5,327C 241.756,325.88 243.923,327.047 245,330.5C 245.333,330.167 245.667,329.833 246,329.5C 248.859,331.724 250.859,334.058 252,336.5C 252.333,336.167 252.667,335.833 253,335.5C 254.68,337.349 256.18,339.349 257.5,341.5C 258.086,341.291 258.586,340.957 259,340.5C 261.167,342 263.333,343.5 265.5,345C 264.833,345.333 264.167,345.667 263.5,346C 265.397,347.612 268.063,348.779 271.5,349.5C 259.88,351.479 247.88,352.146 235.5,351.5C 235.5,344.5 235.5,337.5 235.5,330.5C 230.5,330.5 225.5,330.5 220.5,330.5C 220.5,349.833 220.5,369.167 220.5,388.5C 225.5,388.5 230.5,388.5 235.5,388.5C 236.491,381.687 236.825,374.687 236.5,367.5C 248.167,367.5 259.833,367.5 271.5,367.5C 271.5,374.5 271.5,381.5 271.5,388.5C 276.5,388.5 281.5,388.5 286.5,388.5C 286.5,369.167 286.5,349.833 286.5,330.5C 287.495,341.654 287.828,352.988 287.5,364.5C 287.173,369.544 287.506,374.544 288.5,379.5C 300.538,387.185 312.871,394.352 325.5,401C 327.527,404.467 330.861,407.134 335.5,409C 334.833,409.333 334.167,409.667 333.5,410C 334.942,410.377 335.942,411.21 336.5,412.5C 316.95,422.225 296.284,428.558 274.5,431.5C 276.438,429.806 276.771,427.806 275.5,425.5C 272.162,424.389 269.495,422.389 267.5,419.5C 266.808,420.025 266.308,420.692 266,421.5C 223.693,396.516 186.026,365.849 153,329.5C 137.571,311.407 122.904,292.741 109,273.5C 104.63,266.492 100.464,258.826 96.5,250.5C 97.6313,249.396 98.4646,249.729 99,251.5C 98.7354,248.18 97.0688,245.513 94,243.5C 93.3828,242.551 93.5494,241.718 94.5,241C 92.6992,240.683 92.3659,240.016 93.5,239C 92.4214,238.044 91.2547,237.211 90,236.5C 88.5977,232.793 87.0977,229.126 85.5,225.5C 86.1667,225.167 86.8333,224.833 87.5,224.5C 87,223.5 86.5,222.5 86,221.5C 85.6667,221.833 85.3333,222.167 85,222.5C 83.9076,220.069 82.7409,220.069 81.5,222.5C 83.4191,211.819 86.4191,201.485 90.5,191.5C 92.1645,190.694 93.8311,191.027 95.5,192.5C 95.1323,194.506 95.6323,196.506 97,198.5C 98.8402,197.167 99.3402,197.334 98.5,199C 101.544,199.359 101.878,200.026 99.5,201C 101.167,203.333 102.833,205.667 104.5,208C 103.833,208.333 103.167,208.667 102.5,209C 105.775,213.701 108.609,219.201 111,225.5C 114.351,226.898 115.351,229.231 114,232.5C 114.333,232.167 114.667,231.833 115,231.5C 115.991,234.66 117.824,237.16 120.5,239C 120.043,239.414 119.709,239.914 119.5,240.5C 123.356,247.206 127.856,253.539 133,259.5C 137.415,265.733 141.582,272.067 145.5,278.5 Z"/></g>
<g><path style="opacity:1" fill="#518ceb" d="M 421.5,194.5 C 423.359,199.41 425.026,204.41 426.5,209.5C 421.702,209.895 417.036,211.561 412.5,214.5C 411.914,214.291 411.414,213.957 411,213.5C 410.722,214.416 410.222,215.082 409.5,215.5C 410.133,210.109 409.133,205.109 406.5,200.5C 406.577,199.25 407.244,198.417 408.5,198C 407.5,197.667 406.5,197.333 405.5,197C 409.898,194.419 414.565,193.086 419.5,193C 418.833,193.333 418.167,193.667 417.5,194C 418.793,194.49 420.127,194.657 421.5,194.5 Z"/></g>
<g><path style="opacity:0.996" fill="#3076e8" d="M 485.5,141.5 C 486.509,145.299 488.509,148.799 491.5,152C 491.043,152.414 490.709,152.914 490.5,153.5C 495.75,163.668 499.75,173.168 502.5,182C 502.5,183.667 502.5,185.333 502.5,187C 503.167,187.333 503.833,187.667 504.5,188C 504.131,190.781 504.131,193.448 504.5,196C 506.689,196.677 507.022,197.844 505.5,199.5C 507.27,200.82 507.603,202.32 506.5,204C 507.872,206.725 508.872,209.391 509.5,212C 508.941,212.725 508.608,213.558 508.5,214.5C 509.119,218.8 510.119,223.134 511.5,227.5C 511.5,238.833 511.5,250.167 511.5,261.5C 510.766,262.878 510.099,264.378 509.5,266C 510.617,269.073 510.784,272.24 510,275.5C 509.3,272.451 508.467,269.118 507.5,265.5C 506.667,264.5 505.833,263.5 505,262.5C 504.667,262.833 504.333,263.167 504,263.5C 503.065,260.898 501.232,259.398 498.5,259C 497.874,258.25 497.374,257.416 497,256.5C 495.984,257.634 495.317,257.301 495,255.5C 494.667,255.833 494.333,256.167 494,256.5C 491.741,252.668 488.574,251.001 484.5,251.5C 482.729,250.965 482.396,250.131 483.5,249C 481.122,248.489 478.788,247.822 476.5,247C 477.833,246.333 477.833,245.667 476.5,245C 474.82,245.771 473.153,245.605 471.5,244.5C 470.675,228.569 468.342,212.902 464.5,197.5C 465.933,196.872 467.267,195.372 468.5,193C 467.833,192.667 467.167,192.333 466.5,192C 467.64,190.027 468.973,188.193 470.5,186.5C 471.396,187.506 472.062,187.506 472.5,186.5C 472.069,185.707 471.735,184.873 471.5,184C 476.888,173.503 480.888,162.503 483.5,151C 482.542,149.853 482.875,148.853 484.5,148C 483.185,146.605 483.519,145.605 485.5,145C 483.069,143.908 483.069,142.741 485.5,141.5 Z"/></g>
<g><path style="opacity:1" fill="#fbfcfd" d="M 165.5,213.5 C 189.139,214.835 198.139,226.835 192.5,249.5C 189.45,253.538 185.45,256.371 180.5,258C 192.161,262.501 197.495,271.001 196.5,283.5C 196.201,287.105 195.035,290.439 193,293.5C 187.273,301.453 179.439,305.953 169.5,307C 149.849,309.679 135.849,302.179 127.5,284.5C 133.443,282.376 139.443,280.376 145.5,278.5C 147.884,281.391 150.551,284.224 153.5,287C 159.528,290.265 165.528,290.265 171.5,287C 176.756,281.26 176.756,275.594 171.5,270C 165.096,267.433 158.43,266.266 151.5,266.5C 151.5,261.5 151.5,256.5 151.5,251.5C 157.257,251.318 162.924,250.485 168.5,249C 171.59,246.984 173.257,244.151 173.5,240.5C 169.797,229.833 163.13,227.667 153.5,234C 151.549,235.734 150.549,237.901 150.5,240.5C 143.808,239.295 137.141,237.962 130.5,236.5C 130.687,234.436 131.187,232.436 132,230.5C 139.772,218.363 150.938,212.697 165.5,213.5 Z"/></g>
<g><path style="opacity:1" fill="#fcfdfe" d="M 327.5,213.5 C 340.812,213.843 350.479,219.843 356.5,231.5C 358.574,236.721 360.241,242.054 361.5,247.5C 362.631,261.172 361.131,274.505 357,287.5C 355.988,290.202 354.488,292.535 352.5,294.5C 344.12,305.349 333.12,309.516 319.5,307C 306.195,302.359 297.695,293.192 294,279.5C 292.656,268.882 292.156,258.216 292.5,247.5C 294.547,232.351 302.214,221.351 315.5,214.5C 319.466,213.838 323.466,213.505 327.5,213.5 Z"/></g>
<g><path style="opacity:1" fill="#fbfcfe" d="M 259.5,215.5 C 262.187,215.336 264.854,215.503 267.5,216C 266.117,217.271 265.117,218.771 264.5,220.5C 257.822,228.664 251.489,237.164 245.5,246C 265.442,244.637 277.109,253.804 280.5,273.5C 280.311,279.784 278.977,285.784 276.5,291.5C 273.858,295.775 270.525,299.442 266.5,302.5C 246.865,311.406 229.698,308.073 215,292.5C 211.043,286.05 209.543,279.05 210.5,271.5C 210.884,266.963 212.051,262.629 214,258.5C 217.356,252.336 220.856,246.336 224.5,240.5C 230.304,232.512 235.97,224.346 241.5,216C 247.491,215.501 253.491,215.334 259.5,215.5 Z"/></g>
<g><path style="opacity:1" fill="#528be8" d="M 388.5,200.5 C 399.686,201.549 403.186,207.215 399,217.5C 391.795,223.422 386.129,222.088 382,213.5C 381.509,207.816 383.675,203.482 388.5,200.5 Z"/></g>
<g><path style="opacity:1" fill="#3a7be3" d="M 288.5,131.5 C 290.368,139.621 292.868,147.621 296,155.5C 297.5,157.667 299,159.833 300.5,162C 300.167,162.333 299.833,162.667 299.5,163C 301.414,166.589 303.748,169.922 306.5,173C 306.167,173.333 305.833,173.667 305.5,174C 306.624,174.249 307.624,174.749 308.5,175.5C 310.563,178.388 312.397,181.388 314,184.5C 314.333,184.167 314.667,183.833 315,183.5C 315.766,185.933 317.266,187.766 319.5,189C 319.167,189.333 318.833,189.667 318.5,190C 323.613,193.113 328.113,196.946 332,201.5C 332.333,201.167 332.667,200.833 333,200.5C 334.771,204.47 337.104,206.136 340,205.5C 340.915,206.328 341.581,207.328 342,208.5C 342.333,208.167 342.667,207.833 343,207.5C 347.066,210.695 351.399,213.362 356,215.5C 356.333,215.167 356.667,214.833 357,214.5C 363.04,218.014 369.54,220.014 376.5,220.5C 378.397,223.559 381.064,225.726 384.5,227C 395.878,229.643 404.211,225.81 409.5,215.5C 410.222,215.082 410.722,214.416 411,213.5C 411.414,213.957 411.914,214.291 412.5,214.5C 417.036,211.561 421.702,209.895 426.5,209.5C 429.065,218.324 430.731,227.324 431.5,236.5C 429.823,234.715 427.989,234.049 426,234.5C 425,235.5 424,236.5 423,237.5C 421.667,234.833 420.333,234.833 419,237.5C 417.951,236.483 416.784,236.316 415.5,237C 416.696,237.654 416.696,238.154 415.5,238.5C 414.5,237.167 413.5,237.167 412.5,238.5C 411.459,236.009 410.626,236.009 410,238.5C 406.372,233.923 401.705,232.59 396,234.5C 394.806,233.57 393.473,232.903 392,232.5C 387.783,234.247 383.617,233.747 379.5,231C 376.776,230.73 374.109,230.23 371.5,229.5C 370.914,229.709 370.414,230.043 370,230.5C 364.841,228.556 359.841,226.222 355,223.5C 354.5,224 354,224.5 353.5,225C 355.734,225.969 357.734,227.302 359.5,229C 358.058,229.377 357.058,230.21 356.5,231.5C 350.479,219.843 340.812,213.843 327.5,213.5C 325.558,211.609 323.725,209.609 322,207.5C 320.951,208.517 319.784,208.684 318.5,208C 319.641,207.259 319.641,206.425 318.5,205.5C 314.267,202.121 310.933,198.621 308.5,195C 304.557,190.663 300.224,185.996 295.5,181C 295.833,180.667 296.167,180.333 296.5,180C 291.62,175.086 288.12,169.252 286,162.5C 283.891,161.965 283.391,160.965 284.5,159.5C 283.248,157.265 282.748,154.931 283,152.5C 283.451,154.929 284.285,155.096 285.5,153C 284.029,151.417 283.029,149.583 282.5,147.5C 284.5,147.5 286.5,147.5 288.5,147.5C 288.5,144.5 288.5,141.5 288.5,138.5C 288.5,136.5 288.5,134.5 288.5,132.5C 288.5,132.167 288.5,131.833 288.5,131.5 Z"/></g>
<g><path style="opacity:1" fill="#0c46a5" d="M 274.5,431.5 C 262.003,432.486 249.669,432.486 237.5,431.5C 241.514,431.666 245.514,431.499 249.5,431C 247.715,429.837 245.715,429.17 243.5,429C 245.125,428.147 245.458,427.147 244.5,426C 241.277,423.459 237.61,421.959 233.5,421.5C 230.095,418.763 226.428,416.43 222.5,414.5C 221.966,412.386 220.966,410.552 219.5,409C 192.581,390.51 168.748,370.677 148,349.5C 147.667,349.833 147.333,350.167 147,350.5C 146.781,349.062 146.281,347.729 145.5,346.5C 144.575,347.641 143.741,347.641 143,346.5C 142.667,345.167 142.333,343.833 142,342.5C 140.169,340.145 138.003,338.812 135.5,338.5C 136.025,337.808 136.692,337.308 137.5,337C 136.333,336.5 135.5,335.667 135,334.5C 134.667,335.167 134.333,335.833 134,336.5C 131.677,333.874 129.343,331.207 127,328.5C 127.979,326.721 127.646,325.055 126,323.5C 116.428,312.679 108.095,301.013 101,288.5C 99.16,286.662 97.4933,284.662 96,282.5C 94.927,283.28 93.7604,283.113 92.5,282C 92.7925,279.692 91.9592,277.526 90,275.5C 89.5201,269.568 87.5201,264.235 84,259.5C 83.3333,260.167 82.6667,260.833 82,261.5C 82.0459,258.222 80.8792,255.222 78.5,252.5C 78.543,242.356 79.543,232.356 81.5,222.5C 82.7409,220.069 83.9076,220.069 85,222.5C 85.3333,222.167 85.6667,221.833 86,221.5C 86.5,222.5 87,223.5 87.5,224.5C 86.8333,224.833 86.1667,225.167 85.5,225.5C 87.0977,229.126 88.5977,232.793 90,236.5C 91.2547,237.211 92.4214,238.044 93.5,239C 92.3659,240.016 92.6992,240.683 94.5,241C 93.5494,241.718 93.3828,242.551 94,243.5C 97.0688,245.513 98.7354,248.18 99,251.5C 98.4646,249.729 97.6313,249.396 96.5,250.5C 100.464,258.826 104.63,266.492 109,273.5C 122.904,292.741 137.571,311.407 153,329.5C 186.026,365.849 223.693,396.516 266,421.5C 266.308,420.692 266.808,420.025 267.5,419.5C 269.495,422.389 272.162,424.389 275.5,425.5C 276.771,427.806 276.438,429.806 274.5,431.5 Z"/></g>
<g><path style="opacity:1" fill="#2868d2" d="M 323.5,231.5 C 330.991,230.994 335.824,234.328 338,241.5C 341.98,256.205 340.98,270.538 335,284.5C 329.667,291.167 324.333,291.167 319,284.5C 313.306,271.656 311.973,258.323 315,244.5C 316,242.167 317,239.833 318,237.5C 320.04,235.63 321.873,233.63 323.5,231.5 Z"/></g>
<g><path style="opacity:1" fill="#063e99" d="M 40.5,226.5 C 39.6574,240.482 39.3241,254.482 39.5,268.5C 37.0442,269.122 35.3775,270.622 34.5,273C 34.8198,274.653 35.8198,275.653 37.5,276C 33.324,278.677 31.9906,282.344 33.5,287C 31.4766,290.183 30.9766,293.683 32,297.5C 32.9056,294.879 33.4056,295.046 33.5,298C 32.5444,299.948 32.2111,301.782 32.5,303.5C 42.0985,356.993 68.4319,400.66 111.5,434.5C 112.646,438.754 113.313,443.087 113.5,447.5C 112.883,447.611 112.383,447.944 112,448.5C 104.01,442.102 96.1771,435.602 88.5,429C 39.6981,378.277 16.5315,323.777 19,265.5C 18.6667,268.167 18.3333,270.833 18,273.5C 17.8333,272 17.6667,270.5 17.5,269C 18.8313,262.413 20.1646,255.747 21.5,249C 21.2409,247.739 20.5742,246.739 19.5,246C 21.1554,244.556 21.822,242.722 21.5,240.5C 22.675,240.719 23.675,240.386 24.5,239.5C 26.1258,236.029 28.7924,234.029 32.5,233.5C 32.3367,231.143 32.5034,228.81 33,226.5C 34.8175,228.645 36.3175,228.645 37.5,226.5C 38.5272,227.791 39.5272,227.791 40.5,226.5 Z"/></g>
<g><path style="opacity:1" fill="#2b70de" d="M 431.5,236.5 C 432.599,247.466 432.765,258.466 432,269.5C 431.884,274.434 431.051,279.1 429.5,283.5C 429.719,282.325 429.386,281.325 428.5,280.5C 412.55,272.858 396.883,264.692 381.5,256C 378.911,254.343 376.244,254.009 373.5,255C 369.304,252.739 365.304,250.239 361.5,247.5C 360.241,242.054 358.574,236.721 356.5,231.5C 357.058,230.21 358.058,229.377 359.5,229C 357.734,227.302 355.734,225.969 353.5,225C 354,224.5 354.5,224 355,223.5C 359.841,226.222 364.841,228.556 370,230.5C 370.414,230.043 370.914,229.709 371.5,229.5C 374.109,230.23 376.776,230.73 379.5,231C 383.617,233.747 387.783,234.247 392,232.5C 393.473,232.903 394.806,233.57 396,234.5C 401.705,232.59 406.372,233.923 410,238.5C 410.626,236.009 411.459,236.009 412.5,238.5C 413.5,237.167 414.5,237.167 415.5,238.5C 416.696,238.154 416.696,237.654 415.5,237C 416.784,236.316 417.951,236.483 419,237.5C 420.333,234.833 421.667,234.833 423,237.5C 424,236.5 425,235.5 426,234.5C 427.989,234.049 429.823,234.715 431.5,236.5 Z"/></g>
<g><path style="opacity:1" fill="#0a419e" d="M 78.5,252.5 C 80.8792,255.222 82.0459,258.222 82,261.5C 82.6667,260.833 83.3333,260.167 84,259.5C 87.5201,264.235 89.5201,269.568 90,275.5C 91.9592,277.526 92.7925,279.692 92.5,282C 93.7604,283.113 94.927,283.28 96,282.5C 97.4933,284.662 99.16,286.662 101,288.5C 108.095,301.013 116.428,312.679 126,323.5C 127.646,325.055 127.979,326.721 127,328.5C 129.343,331.207 131.677,333.874 134,336.5C 134.333,335.833 134.667,335.167 135,334.5C 135.5,335.667 136.333,336.5 137.5,337C 136.692,337.308 136.025,337.808 135.5,338.5C 138.003,338.812 140.169,340.145 142,342.5C 142.333,343.833 142.667,345.167 143,346.5C 143.741,347.641 144.575,347.641 145.5,346.5C 146.281,347.729 146.781,349.062 147,350.5C 147.333,350.167 147.667,349.833 148,349.5C 168.748,370.677 192.581,390.51 219.5,409C 220.966,410.552 221.966,412.386 222.5,414.5C 226.428,416.43 230.095,418.763 233.5,421.5C 237.61,421.959 241.277,423.459 244.5,426C 245.458,427.147 245.125,428.147 243.5,429C 245.715,429.17 247.715,429.837 249.5,431C 245.514,431.499 241.514,431.666 237.5,431.5C 208.769,429.454 182.769,420.121 159.5,403.5C 164.318,398.181 169.318,393.015 174.5,388C 159.626,384.119 144.96,379.952 130.5,375.5C 131.55,375.095 131.55,374.429 130.5,373.5C 121.864,365.026 113.698,356.026 106,346.5C 105.23,345.402 104.397,345.402 103.5,346.5C 86.7408,317.467 78.4075,286.133 78.5,252.5 Z"/></g>
<g><path style="opacity:1" fill="#205dc4" d="M 240.5,261.5 C 255.789,260.776 261.622,267.776 258,282.5C 253.748,288.588 247.915,290.754 240.5,289C 231.299,283.667 229.133,276.167 234,266.5C 236.326,264.934 238.492,263.268 240.5,261.5 Z"/></g>
<g><path style="opacity:1" fill="#063b93" d="M 39.5,268.5 C 41.7618,305.784 52.9284,340.117 73,371.5C 72.1603,359.449 70.6603,347.449 68.5,335.5C 80.2271,338.965 91.8937,342.631 103.5,346.5C 104.397,345.402 105.23,345.402 106,346.5C 113.698,356.026 121.864,365.026 130.5,373.5C 131.55,374.429 131.55,375.095 130.5,375.5C 120.488,372.963 110.488,370.296 100.5,367.5C 99.3526,369.765 99.1859,372.098 100,374.5C 103.727,394.531 107.56,414.531 111.5,434.5C 68.4319,400.66 42.0985,356.993 32.5,303.5C 32.2111,301.782 32.5444,299.948 33.5,298C 33.4056,295.046 32.9056,294.879 32,297.5C 30.9766,293.683 31.4766,290.183 33.5,287C 31.9906,282.344 33.324,278.677 37.5,276C 35.8198,275.653 34.8198,274.653 34.5,273C 35.3775,270.622 37.0442,269.122 39.5,268.5 Z"/></g>
<g><path style="opacity:1" fill="#2467d3" d="M 361.5,247.5 C 365.304,250.239 369.304,252.739 373.5,255C 376.244,254.009 378.911,254.343 381.5,256C 396.883,264.692 412.55,272.858 428.5,280.5C 429.386,281.325 429.719,282.325 429.5,283.5C 427.633,298.981 423.3,313.648 416.5,327.5C 408.25,323.108 400.084,318.441 392,313.5C 391.667,313.833 391.333,314.167 391,314.5C 390.626,313.584 390.126,312.75 389.5,312C 378.112,306.844 366.779,300.677 355.5,293.5C 354.583,294.127 353.583,294.461 352.5,294.5C 354.488,292.535 355.988,290.202 357,287.5C 361.131,274.505 362.631,261.172 361.5,247.5 Z"/></g>
<g><path style="opacity:0.995" fill="#2c70e0" d="M 471.5,244.5 C 473.153,245.605 474.82,245.771 476.5,245C 477.833,245.667 477.833,246.333 476.5,247C 478.788,247.822 481.122,248.489 483.5,249C 482.396,250.131 482.729,250.965 484.5,251.5C 488.574,251.001 491.741,252.668 494,256.5C 494.333,256.167 494.667,255.833 495,255.5C 495.317,257.301 495.984,257.634 497,256.5C 497.374,257.416 497.874,258.25 498.5,259C 501.232,259.398 503.065,260.898 504,263.5C 504.333,263.167 504.667,262.833 505,262.5C 505.833,263.5 506.667,264.5 507.5,265.5C 508.467,269.118 509.3,272.451 510,275.5C 510.784,272.24 510.617,269.073 509.5,266C 510.099,264.378 510.766,262.878 511.5,261.5C 511.5,267.833 511.5,274.167 511.5,280.5C 510.167,280.833 510.167,281.167 511.5,281.5C 511.5,281.833 511.5,282.167 511.5,282.5C 510.167,282.833 510.167,283.167 511.5,283.5C 511.5,283.833 511.5,284.167 511.5,284.5C 510.265,288.31 509.265,292.31 508.5,296.5C 508.608,297.442 508.941,298.275 509.5,299C 507.794,303.177 506.461,307.51 505.5,312C 505.645,312.772 505.978,313.439 506.5,314C 505.009,316.097 504.009,318.43 503.5,321C 504.022,323.289 503.355,325.456 501.5,327.5C 501.709,328.086 502.043,328.586 502.5,329C 500.36,331.066 499.693,333.4 500.5,336C 499.333,336.5 498.5,337.333 498,338.5C 497.511,341.982 496.345,345.149 494.5,348C 494.833,348.333 495.167,348.667 495.5,349C 493.316,352.195 491.649,355.695 490.5,359.5C 489.857,361.076 488.857,362.41 487.5,363.5C 486.883,363.611 486.383,363.944 486,364.5C 484.833,362.667 483.667,360.833 482.5,359C 484.108,358.342 485.275,358.842 486,360.5C 488.803,357.441 488.469,354.441 485,351.5C 484.5,349.5 484,347.5 483.5,345.5C 483.637,343.893 484.304,342.559 485.5,341.5C 490.257,344.12 490.59,343.62 486.5,340C 487.308,339.692 487.975,339.192 488.5,338.5C 487.135,337.059 485.635,335.726 484,334.5C 480.799,323.453 475.466,314.12 468,306.5C 467.658,308.619 466.825,308.953 465.5,307.5C 470.2,286.774 472.2,265.774 471.5,244.5 Z"/></g>
<g><path style="opacity:1" fill="#1b5cc3" d="M 276.5,291.5 C 280.769,294.193 285.102,297.36 289.5,301C 300.345,309.745 312.011,318.078 324.5,326C 325.211,327.255 326.044,328.421 327,329.5C 327.414,329.043 327.914,328.709 328.5,328.5C 334.317,331.583 339.484,335.25 344,339.5C 345.016,338.366 345.683,338.699 346,340.5C 347.507,339.465 349.007,339.632 350.5,341C 352.67,342.586 355.004,343.92 357.5,345C 356.66,346.666 357.16,346.833 359,345.5C 360.84,348.176 363.34,350.009 366.5,351C 368.329,353.659 370.329,356.159 372.5,358.5C 373.451,359.326 374.451,359.492 375.5,359C 374.167,358.333 374.167,357.667 375.5,357C 372.388,356.149 372.054,354.983 374.5,353.5C 376.472,354.305 377.972,355.639 379,357.5C 380.461,356.117 381.294,356.451 381.5,358.5C 380.486,364.261 379.152,369.928 377.5,375.5C 374.197,373.839 370.863,372.172 367.5,370.5C 366.901,367.933 365.401,366.266 363,365.5C 328.9,348.932 296.734,327.932 266.5,302.5C 270.525,299.442 273.858,295.775 276.5,291.5 Z"/></g>
<g><path style="opacity:1" fill="#2061ca" d="M 264.5,220.5 C 273.365,229.942 282.698,238.942 292.5,247.5C 292.156,258.216 292.656,268.882 294,279.5C 297.695,293.192 306.195,302.359 319.5,307C 333.12,309.516 344.12,305.349 352.5,294.5C 353.583,294.461 354.583,294.127 355.5,293.5C 366.779,300.677 378.112,306.844 389.5,312C 390.126,312.75 390.626,313.584 391,314.5C 391.333,314.167 391.667,313.833 392,313.5C 400.084,318.441 408.25,323.108 416.5,327.5C 413.207,336.088 408.874,344.088 403.5,351.5C 398.181,346.682 393.015,341.682 388,336.5C 385.811,343.94 383.645,351.273 381.5,358.5C 381.294,356.451 380.461,356.117 379,357.5C 377.972,355.639 376.472,354.305 374.5,353.5C 372.054,354.983 372.388,356.149 375.5,357C 374.167,357.667 374.167,358.333 375.5,359C 374.451,359.492 373.451,359.326 372.5,358.5C 370.329,356.159 368.329,353.659 366.5,351C 363.34,350.009 360.84,348.176 359,345.5C 357.16,346.833 356.66,346.666 357.5,345C 355.004,343.92 352.67,342.586 350.5,341C 349.007,339.632 347.507,339.465 346,340.5C 345.683,338.699 345.016,338.366 344,339.5C 339.484,335.25 334.317,331.583 328.5,328.5C 327.914,328.709 327.414,329.043 327,329.5C 326.044,328.421 325.211,327.255 324.5,326C 312.011,318.078 300.345,309.745 289.5,301C 285.102,297.36 280.769,294.193 276.5,291.5C 278.977,285.784 280.311,279.784 280.5,273.5C 277.109,253.804 265.442,244.637 245.5,246C 251.489,237.164 257.822,228.664 264.5,220.5 Z"/></g>
<g><path style="opacity:1" fill="#2568d5" d="M 487.5,363.5 C 486.705,367.72 485.038,371.553 482.5,375C 483.345,376.558 482.679,377.558 480.5,378C 480.833,378.333 481.167,378.667 481.5,379C 477.83,382.716 475.164,386.55 473.5,390.5C 473.167,391.167 472.833,391.833 472.5,392.5C 465.684,404.821 457.684,415.654 448.5,425C 448.833,425.333 449.167,425.667 449.5,426C 448.016,426.662 446.683,427.496 445.5,428.5C 443.811,427.696 442.145,426.696 440.5,425.5C 441.189,423.556 441.689,421.556 442,419.5C 442.333,420.5 442.667,421.5 443,422.5C 443.207,418.911 443.707,415.411 444.5,412C 441.844,409.314 441.844,406.647 444.5,404C 443.767,402.234 443.433,400.401 443.5,398.5C 445.086,397.852 446.753,397.352 448.5,397C 442.985,391.652 437.652,386.152 432.5,380.5C 447.554,358.054 458.554,333.721 465.5,307.5C 466.825,308.953 467.658,308.619 468,306.5C 475.466,314.12 480.799,323.453 484,334.5C 485.635,335.726 487.135,337.059 488.5,338.5C 487.975,339.192 487.308,339.692 486.5,340C 490.59,343.62 490.257,344.12 485.5,341.5C 484.304,342.559 483.637,343.893 483.5,345.5C 484,347.5 484.5,349.5 485,351.5C 488.469,354.441 488.803,357.441 486,360.5C 485.275,358.842 484.108,358.342 482.5,359C 483.667,360.833 484.833,362.667 486,364.5C 486.383,363.944 486.883,363.611 487.5,363.5 Z"/></g>
<g><path style="opacity:0.008" fill="#0000ff" d="M 8.5,326.5 C 7.83333,327.167 7.83333,327.167 8.5,326.5 Z"/></g>
<g><path style="opacity:1" fill="#0d0e12" d="M 271.5,349.5 C 271.5,343.167 271.5,336.833 271.5,330.5C 276.5,330.5 281.5,330.5 286.5,330.5C 286.5,349.833 286.5,369.167 286.5,388.5C 281.5,388.5 276.5,388.5 271.5,388.5C 271.5,381.5 271.5,374.5 271.5,367.5C 259.678,366.505 247.678,366.172 235.5,366.5C 235.5,373.833 235.5,381.167 235.5,388.5C 230.5,388.5 225.5,388.5 220.5,388.5C 220.5,369.167 220.5,349.833 220.5,330.5C 225.5,330.5 230.5,330.5 235.5,330.5C 235.5,337.5 235.5,344.5 235.5,351.5C 247.88,352.146 259.88,351.479 271.5,349.5 Z"/></g>
<g><path style="opacity:1" fill="#f3f3f3" d="M 223.5,333.5 C 226.833,333.5 230.167,333.5 233.5,333.5C 233.5,350.833 233.5,368.167 233.5,385.5C 230.167,385.5 226.833,385.5 223.5,385.5C 223.5,368.167 223.5,350.833 223.5,333.5 Z"/></g>
<g><path style="opacity:1" fill="#fafafa" d="M 274.5,333.5 C 277.5,333.5 280.5,333.5 283.5,333.5C 283.5,350.833 283.5,368.167 283.5,385.5C 280.5,385.5 277.5,385.5 274.5,385.5C 274.5,378.5 274.5,371.5 274.5,364.5C 261.833,364.5 249.167,364.5 236.5,364.5C 236.5,361.167 236.5,357.833 236.5,354.5C 249.167,354.5 261.833,354.5 274.5,354.5C 274.5,347.5 274.5,340.5 274.5,333.5 Z"/></g>
<g><path style="opacity:1" fill="#949494" d="M 274.5,333.5 C 277.625,332.521 280.958,332.187 284.5,332.5C 284.83,350.341 284.497,368.008 283.5,385.5C 283.5,368.167 283.5,350.833 283.5,333.5C 280.5,333.5 277.5,333.5 274.5,333.5 Z"/></g>
<g><path style="opacity:0.008" fill="#0000ff" d="M 490.5,359.5 C 491.833,360.167 491.833,360.167 490.5,359.5 Z"/></g>
<g><path style="opacity:1" fill="#0a3882" d="M 271.5,367.5 C 259.833,367.5 248.167,367.5 236.5,367.5C 236.825,374.687 236.491,381.687 235.5,388.5C 235.5,381.167 235.5,373.833 235.5,366.5C 247.678,366.172 259.678,366.505 271.5,367.5 Z"/></g>
<g><path style="opacity:1" fill="#fcfdfe" d="M 130.5,375.5 C 144.96,379.952 159.626,384.119 174.5,388C 169.318,393.015 164.318,398.181 159.5,403.5C 182.769,420.121 208.769,429.454 237.5,431.5C 249.669,432.486 262.003,432.486 274.5,431.5C 296.284,428.558 316.95,422.225 336.5,412.5C 339.898,410.436 343.232,409.102 346.5,408.5C 342.862,420.101 339.529,431.768 336.5,443.5C 348.194,441.66 359.861,439.66 371.5,437.5C 371.5,437.833 371.5,438.167 371.5,438.5C 350.965,450.564 329.298,459.897 306.5,466.5C 300.905,466.754 295.572,467.754 290.5,469.5C 276.883,471.026 263.217,471.692 249.5,471.5C 205.883,470.294 166.216,457.294 130.5,432.5C 124.785,437.548 119.452,442.881 114.5,448.5C 113.833,448.5 113.5,448.167 113.5,447.5C 113.313,443.087 112.646,438.754 111.5,434.5C 107.56,414.531 103.727,394.531 100,374.5C 99.1859,372.098 99.3526,369.765 100.5,367.5C 110.488,370.296 120.488,372.963 130.5,375.5 Z"/></g>
<g><path style="opacity:1" fill="#1551b4" d="M 371.5,437.5 C 359.861,439.66 348.194,441.66 336.5,443.5C 339.529,431.768 342.862,420.101 346.5,408.5C 343.232,409.102 339.898,410.436 336.5,412.5C 335.942,411.21 334.942,410.377 333.5,410C 334.167,409.667 334.833,409.333 335.5,409C 330.861,407.134 327.527,404.467 325.5,401C 312.871,394.352 300.538,387.185 288.5,379.5C 287.506,374.544 287.173,369.544 287.5,364.5C 290.827,363.071 293.327,364.071 295,367.5C 295.333,367.167 295.667,366.833 296,366.5C 296.772,367.849 297.939,368.682 299.5,369C 299.167,369.333 298.833,369.667 298.5,370C 300.392,370.973 302.392,371.64 304.5,372C 305.126,372.75 305.626,373.584 306,374.5C 306.333,374.167 306.667,373.833 307,373.5C 312.116,377.394 317.283,380.561 322.5,383C 324.049,384.214 325.215,385.714 326,387.5C 326.333,386.833 326.667,386.167 327,385.5C 330.02,386.002 332.02,387.668 333,390.5C 334.84,389.167 335.34,389.334 334.5,391C 336.329,391.273 337.829,392.107 339,393.5C 339.333,393.167 339.667,392.833 340,392.5C 342.018,394.35 343.851,396.35 345.5,398.5C 347.003,397.948 348.669,397.948 350.5,398.5C 350.281,399.675 350.614,400.675 351.5,401.5C 357.252,404.752 362.585,408.585 367.5,413C 366.346,413.914 366.513,414.747 368,415.5C 369.84,414.167 370.34,414.334 369.5,416C 370.257,417.512 371.257,418.846 372.5,420C 371.72,421.073 371.887,422.24 373,423.5C 374.156,422.007 374.99,422.174 375.5,424C 375.355,424.772 375.022,425.439 374.5,426C 377.944,431.182 377.778,436.348 374,441.5C 373.667,439.833 373.333,438.167 373,436.5C 372.617,437.056 372.117,437.389 371.5,437.5 Z"/></g>
<g><path style="opacity:0.008" fill="#0000ff" d="M 28.5,376.5 C 29.9063,376.973 30.573,377.973 30.5,379.5C 28.6503,378.758 27.9836,377.758 28.5,376.5 Z"/></g>
<g><path style="opacity:0.991" fill="#124baf" d="M 67.5,147.5 C 61.6,158.63 56.2667,169.964 51.5,181.5C 50.5244,180.185 49.5244,178.852 48.5,177.5C 48.1667,178.167 47.8333,178.833 47.5,179.5C 46.5745,178.359 45.7412,178.359 45,179.5C 44.3333,178.833 43.6667,178.167 43,177.5C 41.7581,178.872 40.2581,179.872 38.5,180.5C 36.0041,179.244 34.0041,179.91 32.5,182.5C 23.6685,187.743 16.3352,196.577 10.5,209C 10.9574,209.414 11.2907,209.914 11.5,210.5C 7.24479,218.573 5.24479,226.573 5.5,234.5C 3.88144,239.96 3.04811,245.627 3,251.5C 2.73583,259.143 2.56916,266.643 2.5,274C 4.86518,301.957 11.3652,328.791 22,354.5C 57.2506,432.045 116.417,481.545 199.5,503C 227.237,508.932 253.903,508.932 279.5,503C 284.253,500.588 288.92,498.088 293.5,495.5C 294.277,493.461 295.443,492.795 297,493.5C 298.163,491.715 298.83,489.715 299,487.5C 299.333,488.5 299.667,489.5 300,490.5C 300.861,487.632 302.528,485.298 305,483.5C 305.402,482.128 305.902,480.795 306.5,479.5C 305.45,477.898 306.117,477.065 308.5,477C 305.833,475.667 305.833,474.333 308.5,473C 307.692,472.692 307.025,472.192 306.5,471.5C 307.891,471.891 308.891,471.058 309.5,469C 308.88,466.898 307.88,466.065 306.5,466.5C 329.298,459.897 350.965,450.564 371.5,438.5C 372.199,440.556 373.199,442.556 374.5,444.5C 371.188,446.645 368.354,449.312 366,452.5C 365.506,454.134 365.34,455.801 365.5,457.5C 364.448,457.351 363.448,457.517 362.5,458C 361.167,460.667 359.167,462.667 356.5,464C 356.957,464.414 357.291,464.914 357.5,465.5C 356.349,466.731 355.183,466.731 354,465.5C 352.645,467.503 351.812,469.336 351.5,471C 350.552,471.483 349.552,471.649 348.5,471.5C 348.587,474.598 348.087,474.932 347,472.5C 346.781,473.938 346.281,475.271 345.5,476.5C 342.061,480.36 338.395,484.027 334.5,487.5C 333.05,488.85 332.383,490.516 332.5,492.5C 330.692,492.491 329.025,492.991 327.5,494C 323.768,497.514 320.101,501.014 316.5,504.5C 315.095,506.379 313.428,506.712 311.5,505.5C 307.228,506.677 303.061,508.01 299,509.5C 297.323,508.392 295.823,508.392 294.5,509.5C 290.922,509.549 287.589,510.215 284.5,511.5C 284.167,511.5 283.833,511.5 283.5,511.5C 282.833,510.167 282.167,510.167 281.5,511.5C 263.167,511.5 244.833,511.5 226.5,511.5C 225.5,510.167 224.5,510.167 223.5,511.5C 223.167,511.5 222.833,511.5 222.5,511.5C 219.57,510.697 216.57,509.697 213.5,508.5C 212.5,508.5 211.5,508.5 210.5,508.5C 206.653,508.127 202.987,507.127 199.5,505.5C 197.694,506.859 196.194,506.525 195,504.5C 194.586,504.957 194.086,505.291 193.5,505.5C 184.438,502.821 175.604,499.821 167,496.5C 165.251,497.299 163.918,496.632 163,494.5C 162.023,495.774 161.189,495.774 160.5,494.5C 159.22,493.069 157.553,492.402 155.5,492.5C 155.158,491.662 154.492,491.328 153.5,491.5C 152.486,490.326 151.153,489.66 149.5,489.5C 144.844,486.949 139.844,484.616 134.5,482.5C 134.027,481.094 133.027,480.427 131.5,480.5C 130.486,479.326 129.153,478.66 127.5,478.5C 127.217,477.711 126.717,477.044 126,476.5C 125,476.833 124,477.167 123,477.5C 120.957,474.622 118.457,472.289 115.5,470.5C 114.486,469.326 113.153,468.66 111.5,468.5C 107.465,465.143 103.132,462.143 98.5,459.5C 98.1667,458.5 97.5,457.833 96.5,457.5C 91.993,454.364 87.6596,451.031 83.5,447.5C 75.3889,438.813 67.3889,430.147 59.5,421.5C 59.1667,420.5 58.5,419.833 57.5,419.5C 48.3377,407.462 39.3377,394.129 30.5,379.5C 30.573,377.973 29.9063,376.973 28.5,376.5C 26.009,370.008 23.009,364.175 19.5,359C 20.6341,357.984 20.3008,357.317 18.5,357C 18.9574,356.586 19.2907,356.086 19.5,355.5C 18.3128,354.481 17.3128,353.314 16.5,352C 16.8333,351.667 17.1667,351.333 17.5,351C 15.5188,350.395 15.1854,349.395 16.5,348C 15.0456,345.756 13.7122,343.423 12.5,341C 12.9574,340.586 13.2907,340.086 13.5,339.5C 11.3679,335.27 9.70128,330.937 8.5,326.5C 6.88427,322.265 5.55094,317.931 4.5,313.5C 4.69376,311.263 4.69376,309.097 4.5,307C 2.85421,305.445 2.52087,303.779 3.5,302C 1.59681,300.334 1.26347,298.5 2.5,296.5C 1.73117,292.784 0.731172,289.117 -0.5,285.5C -0.5,285.167 -0.5,284.833 -0.5,284.5C 0.833333,284.167 0.833333,283.833 -0.5,283.5C -0.5,265.833 -0.5,248.167 -0.5,230.5C 0.833333,230.167 0.833333,229.833 -0.5,229.5C -0.5,228.833 -0.5,228.167 -0.5,227.5C 0.605312,223.327 1.60531,218.993 2.5,214.5C 2.39184,213.558 2.05851,212.725 1.5,212C 4.06068,202.635 6.72735,193.302 9.5,184C 9.04265,183.586 8.70931,183.086 8.5,182.5C 9.39432,180.423 10.3943,178.423 11.5,176.5C 11.3433,177.873 11.51,179.207 12,180.5C 13.487,179.747 13.6537,178.914 12.5,178C 19.7074,166.928 28.3741,158.928 38.5,154C 38.1667,153.667 37.8333,153.333 37.5,153C 40.1667,152.333 42.8333,151.667 45.5,151C 45.1667,150.667 44.8333,150.333 44.5,150C 47.1494,149.548 49.6494,148.714 52,147.5C 53.7487,148.299 55.082,147.632 56,145.5C 57.049,147.107 58.549,147.773 60.5,147.5C 60.3505,146.448 60.5172,145.448 61,144.5C 62.0195,145.687 63.1861,146.687 64.5,147.5C 64.9976,146.397 65.3309,145.397 65.5,144.5C 66.9185,145.005 67.5852,146.005 67.5,147.5 Z"/></g>
<g><path style="opacity:0.008" fill="#0000ff" d="M 473.5,390.5 C 474.757,391.623 474.424,392.289 472.5,392.5C 472.833,391.833 473.167,391.167 473.5,390.5 Z"/></g>
<g><path style="opacity:1" fill="#1d5dc6" d="M 443.5,398.5 C 443.433,400.401 443.767,402.234 444.5,404C 441.844,406.647 441.844,409.314 444.5,412C 443.707,415.411 443.207,418.911 443,422.5C 442.667,421.5 442.333,420.5 442,419.5C 441.689,421.556 441.189,423.556 440.5,425.5C 442.145,426.696 443.811,427.696 445.5,428.5C 442.973,430.605 440.64,432.939 438.5,435.5C 435.111,437.725 432.611,440.725 431,444.5C 430.667,444.167 430.333,443.833 430,443.5C 426.785,446.66 423.952,449.327 421.5,451.5C 413.894,458.898 406.061,464.565 398,468.5C 396.018,471.892 393.185,473.892 389.5,474.5C 388.833,474.833 388.167,475.167 387.5,475.5C 385.226,476.173 383.059,477.84 381,480.5C 380,480.5 379,480.5 378,480.5C 376.667,481.833 375.333,483.167 374,484.5C 373.667,484.167 373.333,483.833 373,483.5C 371.173,484.659 369.507,485.992 368,487.5C 366.853,486.542 365.853,486.875 365,488.5C 364.667,488.167 364.333,487.833 364,487.5C 362.951,489.107 361.451,489.773 359.5,489.5C 359.83,486.891 361.33,485.224 364,484.5C 364.333,484.833 364.667,485.167 365,485.5C 366.279,482.779 368.279,480.779 371,479.5C 371.333,479.833 371.667,480.167 372,480.5C 373.827,477.84 375.994,475.506 378.5,473.5C 382.582,472.248 385.582,469.748 387.5,466C 389.132,464.69 390.799,464.19 392.5,464.5C 394.422,463.04 395.089,461.373 394.5,459.5C 408.597,445.846 414.097,429.846 411,411.5C 410.667,411.833 410.333,412.167 410,412.5C 409.023,410.26 408.523,407.927 408.5,405.5C 409.791,405.737 410.791,405.404 411.5,404.5C 422.188,402.629 432.855,400.629 443.5,398.5 Z"/></g>
<g><path style="opacity:1" fill="#1756bb" d="M 192.5,249.5 C 192.586,250.496 192.252,251.329 191.5,252C 195.466,254.632 198.799,257.966 201.5,262C 201.167,262.333 200.833,262.667 200.5,263C 201.253,264.487 202.086,264.654 203,263.5C 204.487,264.253 204.654,265.086 203.5,266C 205.965,267.628 208.298,269.461 210.5,271.5C 209.543,279.05 211.043,286.05 215,292.5C 229.698,308.073 246.865,311.406 266.5,302.5C 296.734,327.932 328.9,348.932 363,365.5C 365.401,366.266 366.901,367.933 367.5,370.5C 370.863,372.172 374.197,373.839 377.5,375.5C 374.03,387.714 371.03,400.047 368.5,412.5C 382.808,409.839 397.141,407.172 411.5,404.5C 410.791,405.404 409.791,405.737 408.5,405.5C 408.523,407.927 409.023,410.26 410,412.5C 410.333,412.167 410.667,411.833 411,411.5C 414.097,429.846 408.597,445.846 394.5,459.5C 395.089,461.373 394.422,463.04 392.5,464.5C 390.799,464.19 389.132,464.69 387.5,466C 385.582,469.748 382.582,472.248 378.5,473.5C 375.994,475.506 373.827,477.84 372,480.5C 371.667,480.167 371.333,479.833 371,479.5C 368.279,480.779 366.279,482.779 365,485.5C 364.667,485.167 364.333,484.833 364,484.5C 361.33,485.224 359.83,486.891 359.5,489.5C 359.607,491.379 359.107,491.712 358,490.5C 351.312,493.378 344.645,496.378 338,499.5C 337.586,499.043 337.086,498.709 336.5,498.5C 333.994,499.892 331.494,501.225 329,502.5C 328.586,502.043 328.086,501.709 327.5,501.5C 325.009,503.058 322.343,504.058 319.5,504.5C 318.833,504.5 318.167,504.5 317.5,504.5C 317.167,504.5 316.833,504.5 316.5,504.5C 320.101,501.014 323.768,497.514 327.5,494C 329.025,492.991 330.692,492.491 332.5,492.5C 332.383,490.516 333.05,488.85 334.5,487.5C 338.395,484.027 342.061,480.36 345.5,476.5C 346.281,475.271 346.781,473.938 347,472.5C 348.087,474.932 348.587,474.598 348.5,471.5C 349.552,471.649 350.552,471.483 351.5,471C 351.812,469.336 352.645,467.503 354,465.5C 355.183,466.731 356.349,466.731 357.5,465.5C 357.291,464.914 356.957,464.414 356.5,464C 359.167,462.667 361.167,460.667 362.5,458C 363.448,457.517 364.448,457.351 365.5,457.5C 365.34,455.801 365.506,454.134 366,452.5C 368.354,449.312 371.188,446.645 374.5,444.5C 373.199,442.556 372.199,440.556 371.5,438.5C 371.5,438.167 371.5,437.833 371.5,437.5C 372.117,437.389 372.617,437.056 373,436.5C 373.333,438.167 373.667,439.833 374,441.5C 377.778,436.348 377.944,431.182 374.5,426C 375.022,425.439 375.355,424.772 375.5,424C 374.99,422.174 374.156,422.007 373,423.5C 371.887,422.24 371.72,421.073 372.5,420C 371.257,418.846 370.257,417.512 369.5,416C 370.34,414.334 369.84,414.167 368,415.5C 366.513,414.747 366.346,413.914 367.5,413C 362.585,408.585 357.252,404.752 351.5,401.5C 350.614,400.675 350.281,399.675 350.5,398.5C 348.669,397.948 347.003,397.948 345.5,398.5C 343.851,396.35 342.018,394.35 340,392.5C 339.667,392.833 339.333,393.167 339,393.5C 337.829,392.107 336.329,391.273 334.5,391C 335.34,389.334 334.84,389.167 333,390.5C 332.02,387.668 330.02,386.002 327,385.5C 326.667,386.167 326.333,386.833 326,387.5C 325.215,385.714 324.049,384.214 322.5,383C 317.283,380.561 312.116,377.394 307,373.5C 306.667,373.833 306.333,374.167 306,374.5C 305.626,373.584 305.126,372.75 304.5,372C 302.392,371.64 300.392,370.973 298.5,370C 298.833,369.667 299.167,369.333 299.5,369C 297.939,368.682 296.772,367.849 296,366.5C 295.667,366.833 295.333,367.167 295,367.5C 293.327,364.071 290.827,363.071 287.5,364.5C 287.828,352.988 287.495,341.654 286.5,330.5C 281.5,330.5 276.5,330.5 271.5,330.5C 271.5,336.833 271.5,343.167 271.5,349.5C 268.063,348.779 265.397,347.612 263.5,346C 264.167,345.667 264.833,345.333 265.5,345C 263.333,343.5 261.167,342 259,340.5C 258.586,340.957 258.086,341.291 257.5,341.5C 256.18,339.349 254.68,337.349 253,335.5C 252.667,335.833 252.333,336.167 252,336.5C 250.859,334.058 248.859,331.724 246,329.5C 245.667,329.833 245.333,330.167 245,330.5C 243.923,327.047 241.756,325.88 238.5,327C 239.167,326.333 239.833,325.667 240.5,325C 237.568,322.994 234.568,320.327 231.5,317C 230.256,316.544 229.423,317.044 229,318.5C 226.833,317 227,315.833 229.5,315C 226.609,311.946 223.275,309.446 219.5,307.5C 218.914,307.709 218.414,308.043 218,308.5C 216.513,307.747 216.346,306.914 217.5,306C 214.694,303.194 211.86,300.36 209,297.5C 207.123,293.072 204.29,289.405 200.5,286.5C 199.676,288.748 198.676,288.914 197.5,287C 198.985,285.244 198.652,284.077 196.5,283.5C 197.495,271.001 192.161,262.501 180.5,258C 185.45,256.371 189.45,253.538 192.5,249.5 Z"/></g>
<g><path style="opacity:0.008" fill="#0000ff" d="M 57.5,419.5 C 58.5,419.833 59.1667,420.5 59.5,421.5C 58.1667,421.5 57.5,420.833 57.5,419.5 Z"/></g>
<g><path style="opacity:0.008" fill="#0000ff" d="M 438.5,435.5 C 439.833,436.167 439.833,436.167 438.5,435.5 Z"/></g>
<g><path style="opacity:1" fill="#053d97" d="M 249.5,471.5 C 254.54,471.938 259.54,472.938 264.5,474.5C 265.192,473.975 265.692,473.308 266,472.5C 266.624,474.464 266.124,476.131 264.5,477.5C 264.709,478.086 265.043,478.586 265.5,479C 261.814,479.914 260.314,482.081 261,485.5C 259.984,484.366 259.317,484.699 259,486.5C 257.493,485.465 255.993,485.632 254.5,487C 255.833,487.667 255.833,488.333 254.5,489C 251.776,489.27 249.109,489.77 246.5,490.5C 245.914,490.291 245.414,489.957 245,489.5C 244.333,492.167 243.667,492.167 243,489.5C 241.915,490.293 240.748,490.96 239.5,491.5C 238.325,490.145 237.325,490.312 236.5,492C 233.333,492.167 230.167,492.333 227,492.5C 223.127,492.092 219.46,492.092 216,492.5C 181.542,486.424 149.042,473.424 118.5,453.5C 116.176,452.058 114.842,450.392 114.5,448.5C 119.452,442.881 124.785,437.548 130.5,432.5C 166.216,457.294 205.883,470.294 249.5,471.5 Z"/></g>
<g><path style="opacity:0.008" fill="#0000ff" d="M 421.5,451.5 C 422.833,452.167 422.833,452.167 421.5,451.5 Z"/></g>
<g><path style="opacity:0.008" fill="#0000ff" d="M 96.5,457.5 C 97.5,457.833 98.1667,458.5 98.5,459.5C 97.1667,459.5 96.5,458.833 96.5,457.5 Z"/></g>
<g><path style="opacity:0.008" fill="#0000ff" d="M 111.5,468.5 C 113.153,468.66 114.486,469.326 115.5,470.5C 113.678,471.429 112.345,470.762 111.5,468.5 Z"/></g>
<g><path style="opacity:0.008" fill="#0000ff" d="M 389.5,474.5 C 389.289,476.424 388.623,476.757 387.5,475.5C 388.167,475.167 388.833,474.833 389.5,474.5 Z"/></g>
<g><path style="opacity:0.008" fill="#0000ff" d="M 127.5,478.5 C 126.833,479.167 126.833,479.167 127.5,478.5 Z"/></g>
<g><path style="opacity:0.008" fill="#0000ff" d="M 131.5,480.5 C 133.027,480.427 134.027,481.094 134.5,482.5C 132.821,482.715 131.821,482.048 131.5,480.5 Z"/></g>
<g><path style="opacity:0.008" fill="#0000ff" d="M 149.5,489.5 C 151.153,489.66 152.486,490.326 153.5,491.5C 151.678,492.429 150.345,491.762 149.5,489.5 Z"/></g>
<g><path style="opacity:0.008" fill="#0000ff" d="M 155.5,492.5 C 157.553,492.402 159.22,493.069 160.5,494.5C 158.447,494.598 156.78,493.931 155.5,492.5 Z"/></g>
<g><path style="opacity:0.008" fill="#0000ff" d="M 317.5,504.5 C 318.167,504.5 318.833,504.5 319.5,504.5C 319.214,506.933 318.548,506.933 317.5,504.5 Z"/></g>
<g><path style="opacity:0.008" fill="#0000ff" d="M 210.5,508.5 C 211.5,508.5 212.5,508.5 213.5,508.5C 213.043,510.557 212.043,510.557 210.5,508.5 Z"/></g>
<g><path style="opacity:0.008" fill="#0000ff" d="M 294.5,509.5 C 295.833,510.167 295.833,510.167 294.5,509.5 Z"/></g>
</svg>
